999
dxfrw 0.6.3
  0
SECTION
  2
HEADER
  9
$ACADVER
  1
AC1021
  9
$DWGCODEPAGE
  3
ANSI_1252
  9
$INSBASE
 10
0
 20
0
 30
0
  9
$EXTMIN
 10
-6.397286116868887
 20
-2.122443943700191
 30
0
  9
$EXTMAX
 10
139.1230466782847
 20
102.853381264083
 30
0
  9
$LIMMIN
 10
0
 20
0
  9
$LIMMAX
 10
420
 20
297
  9
$ORTHOMODE
 70
    0
  9
$REGENMODE
 70
    1
  9
$FILLMODE
 70
    0
  9
$QTEXTMODE
 70
    0
  9
$MIRRTEXT
 70
    0
  9
$LTSCALE
 40
1
  9
$ATTMODE
 70
    0
  9
$TEXTSIZE
 40
2.5
  9
$TRACEWID
 40
15.68
  9
$TEXTSTYLE
  7
STANDARD
  9
$CLAYER
  8
case-and-holes
  9
$CELTYPE
  6
BYLAYER
  9
$CECOLOR
 62
  256
  9
$CELTSCALE
 40
1
  9
$DISPSILH
 70
    0
  9
$DIMSCALE
 40
2.5
  9
$DIMASZ
 40
2.5
  9
$DIMEXO
 40
0.625
  9
$DIMDLI
 40
3.75
  9
$DIMRND
 40
0
  9
$DIMDLE
 40
0
  9
$DIMEXE
 40
1.25
  9
$DIMTP
 40
0
  9
$DIMTM
 40
0
  9
$DIMTXT
 40
2.5
  9
$DIMCEN
 40
2.5
  9
$DIMTSZ
 40
0
  9
$DIMTOL
 70
    0
  9
$DIMLIM
 70
    0
  9
$DIMTIH
 70
    0
  9
$DIMTOH
 70
    0
  9
$DIMSE1
 70
    0
  9
$DIMSE2
 70
    0
  9
$DIMTAD
 70
    1
  9
$DIMZIN
 70
    8
  9
$DIMBLK
  1

  9
$DIMASO
 70
    1
  9
$DIMSHO
 70
    1
  9
$DIMPOST
  1

  9
$DIMAPOST
  1

  9
$DIMALT
 70
    0
  9
$DIMALTD
 70
    3
  9
$DIMALTF
 40
0.03937
  9
$DIMLFAC
 40
1
  9
$DIMTOFL
 70
    1
  9
$DIMTVP
 40
0
  9
$DIMTIX
 70
    0
  9
$DIMSOXD
 70
    0
  9
$DIMSAH
 70
    0
  9
$DIMBLK1
  1

  9
$DIMBLK2
  1

  9
$DIMSTYLE
  2
Standard
  9
$DIMCLRD
 70
    0
  9
$DIMCLRE
 70
    0
  9
$DIMCLRT
 70
    0
  9
$DIMTFAC
 40
1
  9
$DIMGAP
 40
0.625
  9
$DIMJUST
 70
    0
  9
$DIMSD1
 70
    0
  9
$DIMSD2
 70
    0
  9
$DIMTOLJ
 70
    0
  9
$DIMTZIN
 70
    8
  9
$DIMALTZ
 70
    0
  9
$DIMALTTZ
 70
    0
  9
$DIMUPT
 70
    0
  9
$DIMDEC
 70
    2
  9
$DIMTDEC
 70
    2
  9
$DIMALTU
 70
    2
  9
$DIMALTTD
 70
    3
  9
$DIMTXSTY
  7
STANDARD
  9
$DIMAUNIT
 70
    0
  9
$DIMADEC
 70
    0
  9
$DIMALTRND
 40
0
  9
$DIMAZIN
 70
    0
  9
$DIMDSEP
 70
   44
  9
$DIMATFIT
 70
    3
  9
$DIMFRAC
 70
    0
  9
$DIMLDRBLK
  1
STANDARD
  9
$DIMLUNIT
 70
    2
  9
$DIMLWD
 70
   -2
  9
$DIMLWE
 70
   -2
  9
$DIMTMOVE
 70
    0
  9
$DIMFXL
 40
1
  9
$DIMFXLON
 70
    0
  9
$DIMJOGANG
 40
0.7854
  9
$DIMTFILL
 70
    0
  9
$DIMTFILLCLR
 70
    0
  9
$DIMARCSYM
 70
    0
  9
$DIMLTYPE
  6

  9
$DIMLTEX1
  6

  9
$DIMLTEX2
  6

  9
$LUNITS
 70
    2
  9
$LUPREC
 70
    4
  9
$SKETCHINC
 40
1
  9
$FILLETRAD
 40
0
  9
$AUNITS
 70
    0
  9
$AUPREC
 70
    2
  9
$MENU
  1
.
  9
$ELEVATION
 40
0
  9
$PELEVATION
 40
0
  9
$THICKNESS
 40
0
  9
$LIMCHECK
 70
    0
  9
$CHAMFERA
 40
0
  9
$CHAMFERB
 40
0
  9
$CHAMFERC
 40
0
  9
$CHAMFERD
 40
0
  9
$SKPOLY
 70
    0
  9
$USRTIMER
 70
    1
  9
$ANGBASE
 50
0
  9
$ANGDIR
 70
    0
  9
$PDMODE
 70
   34
  9
$PDSIZE
 40
0
  9
$PLINEWID
 40
0
  9
$SPLFRAME
 70
    1
  9
$SPLINETYPE
 70
    2
  9
$SPLINESEGS
 70
    8
  9
$HANDSEED
  5
20000
  9
$SURFTAB1
 70
    6
  9
$SURFTAB2
 70
    6
  9
$SURFTYPE
 70
    6
  9
$SURFU
 70
    6
  9
$SURFV
 70
    6
  9
$UCSBASE
  2

  9
$UCSNAME
  2

  9
$UCSORG
 10
0
 20
0
 30
0
  9
$UCSXDIR
 10
1
 20
0
 30
0
  9
$UCSYDIR
 10
0
 20
1
 30
0
  9
$UCSORTHOREF
  2

  9
$UCSORTHOVIEW
 70
    0
  9
$UCSORGTOP
 10
0
 20
0
 30
0
  9
$UCSORGBOTTOM
 10
0
 20
0
 30
0
  9
$UCSORGLEFT
 10
0
 20
0
 30
0
  9
$UCSORGRIGHT
 10
0
 20
0
 30
0
  9
$UCSORGFRONT
 10
0
 20
0
 30
0
  9
$UCSORGBACK
 10
0
 20
0
 30
0
  9
$PUCSBASE
  2

  9
$PUCSNAME
  2

  9
$PUCSORG
 10
0
 20
0
 30
0
  9
$PUCSXDIR
 10
1
 20
0
 30
0
  9
$PUCSYDIR
 10
0
 20
1
 30
0
  9
$PUCSORTHOREF
  2

  9
$PUCSORTHOVIEW
 70
    0
  9
$PUCSORGTOP
 10
0
 20
0
 30
0
  9
$PUCSORGBOTTOM
 10
0
 20
0
 30
0
  9
$PUCSORGLEFT
 10
0
 20
0
 30
0
  9
$PUCSORGRIGHT
 10
0
 20
0
 30
0
  9
$PUCSORGFRONT
 10
0
 20
0
 30
0
  9
$PUCSORGBACK
 10
0
 20
0
 30
0
  9
$USERI1
 70
    0
  9
$USERI2
 70
    0
  9
$USERI3
 70
    0
  9
$USERI4
 70
    0
  9
$USERI5
 70
    0
  9
$USERR1
 40
0
  9
$USERR2
 40
0
  9
$USERR3
 40
0
  9
$USERR4
 40
0
  9
$USERR5
 40
0
  9
$WORLDVIEW
 70
    1
  9
$SHADEDGE
 70
    3
  9
$SHADEDIF
 70
   70
  9
$TILEMODE
 70
    1
  9
$MAXACTVP
 70
   64
  9
$PINSBASE
 10
40.95559449221618
 20
148.2724616288685
 30
0
  9
$PLIMCHECK
 70
    0
  9
$PEXTMIN
 10
0
 20
0
 30
0
  9
$PEXTMAX
 10
0
 20
0
 30
0
  9
$GRIDMODE
 70
    1
  9
$SNAPSTYLE
 70
    0
  9
$PLIMMIN
 10
0
 20
0
  9
$PLIMMAX
 10
210
 20
297
  9
$UNITMODE
 70
    0
  9
$VISRETAIN
 70
    1
  9
$PLINEGEN
 70
    0
  9
$PSLTSCALE
 70
    1
  9
$TREEDEPTH
 70
 3020
  9
$CMLSTYLE
  2
Standard
  9
$CMLJUST
 70
    0
  9
$CMLSCALE
 40
20
  9
$PROXYGRAPHICS
 70
    1
  9
$MEASUREMENT
 70
    1
  9
$CELWEIGHT
370
   -1
  9
$ENDCAPS
280
    0
  9
$JOINSTYLE
280
    0
  9
$LWDISPLAY
290
    0
  9
$INSUNITS
 70
    4
  9
$HYPERLINKBASE
  1

  9
$STYLESHEET
  1

  9
$XEDIT
290
    1
  9
$CEPSNTYPE
380
    0
  9
$PSTYLEMODE
290
    1
  9
$EXTNAMES
290
    1
  9
$PSVPSCALE
 40
1
  9
$OLESTARTUP
290
    0
  9
$SORTENTS
280
  127
  9
$INDEXCTL
280
    0
  9
$HIDETEXT
280
    1
  9
$XCLIPFRAME
290
    0
  9
$HALOGAP
280
    0
  9
$OBSCOLOR
 70
  257
  9
$OBSLTYPE
280
    0
  9
$INTERSECTIONDISPLAY
280
    0
  9
$INTERSECTIONCOLOR
 70
  257
  9
$DIMASSOC
280
    1
  9
$PROJECTNAME
  1

  9
$CAMERADISPLAY
290
    0
  9
$LENSLENGTH
 40
50
  9
$CAMERAHEIGHT
 40
0
  9
$STEPSPERSEC
 40
2
  9
$STEPSIZE
 40
50
  9
$3DDWFPREC
 40
2
  9
$PSOLWIDTH
 40
5
  9
$PSOLHEIGHT
 40
80
  9
$LOFTANG1
 40
1.570796326794897
  9
$LOFTANG2
 40
1.570796326794897
  9
$LOFTMAG1
 40
0
  9
$LOFTMAG2
 40
0
  9
$LOFTPARAM
 70
    7
  9
$LOFTNORMALS
280
    1
  9
$LATITUDE
 40
1
  9
$LONGITUDE
 40
1
  9
$NORTHDIRECTION
 40
0
  9
$TIMEZONE
 70
-8000
  9
$LIGHTGLYPHDISPLAY
280
    1
  9
$TILEMODELIGHTSYNCH
280
    1
  9
$SOLIDHIST
280
    1
  9
$SHOWHIST
280
    1
  9
$DWFFRAME
280
    2
  9
$DGNFRAME
280
    0
  9
$REALWORLDSCALE
290
    1
  9
$INTERFERECOLOR
 62
    1
  9
$CSHADOW
280
    0
  9
$SHADOWPLANELOCATION
 40
0
  0
ENDSEC
  0
SECTION
  2
CLASSES
  0
ENDSEC
  0
SECTION
  2
TABLES
  0
TABLE
  2
VPORT
  5
8
330
0
100
AcDbSymbolTable
 70
    1
  0
VPORT
  5
31
330
2
100
AcDbSymbolTableRecord
100
AcDbViewportTableRecord
  2
*ACTIVE
 70
    0
 10
0
 20
0
 11
1
 21
1
 12
84.15145938120793
 22
52.09376056931919
 13
0
 23
0
 14
10
 24
10
 15
10
 25
10
 16
0
 26
0
 36
1
 17
0
 27
0
 37
0
 40
107.6035054382659
 41
1.893772893772894
 42
50
 43
0
 44
0
 50
0
 51
0
 71
    0
 72
  100
 73
    1
 74
    3
 75
    0
 76
    1
 77
    0
 78
    0
281
    0
 65
    1
110
0
120
0
130
0
111
1
121
0
131
0
112
0
122
1
132
0
 79
    0
146
0
348
10020
 60
    7
 61
    5
292
1
282
    1
141
0
142
0
 63
  250
421
3358443
  0
ENDTAB
  0
TABLE
  2
LTYPE
  5
5
330
0
100
AcDbSymbolTable
 70
    4
  0
LTYPE
  5
14
330
5
100
AcDbSymbolTableRecord
100
AcDbLinetypeTableRecord
  2
ByBlock
 70
    0
  3

 72
   65
 73
    0
 40
0
  0
LTYPE
  5
15
330
5
100
AcDbSymbolTableRecord
100
AcDbLinetypeTableRecord
  2
ByLayer
 70
    0
  3

 72
   65
 73
    0
 40
0
  0
LTYPE
  5
16
330
5
100
AcDbSymbolTableRecord
100
AcDbLinetypeTableRecord
  2
Continuous
 70
    0
  3
Solid line
 72
   65
 73
    0
 40
0
  0
LTYPE
  5
32
330
5
100
AcDbSymbolTableRecord
100
AcDbLinetypeTableRecord
  2
DOT
 70
    0
  3
Dot . . . . . . . . . . . . . . . . . . . . . .
 72
   65
 73
    2
 40
6.35
 49
0
 74
    0
 49
-6.35
 74
    0
  0
LTYPE
  5
33
330
5
100
AcDbSymbolTableRecord
100
AcDbLinetypeTableRecord
  2
DOTTINY
 70
    0
  3
Dot (.15x) .....................................
 72
   65
 73
    2
 40
0.9525
 49
0
 74
    0
 49
-0.9525
 74
    0
  0
LTYPE
  5
34
330
5
100
AcDbSymbolTableRecord
100
AcDbLinetypeTableRecord
  2
DOT2
 70
    0
  3
Dot (.5x) .....................................
 72
   65
 73
    2
 40
3.175
 49
0
 74
    0
 49
-3.175
 74
    0
  0
LTYPE
  5
35
330
5
100
AcDbSymbolTableRecord
100
AcDbLinetypeTableRecord
  2
DOTX2
 70
    0
  3
Dot (2x) .  .  .  .  .  .  .  .  .  .  .  .  .
 72
   65
 73
    2
 40
12.7
 49
0
 74
    0
 49
-12.7
 74
    0
  0
LTYPE
  5
36
330
5
100
AcDbSymbolTableRecord
100
AcDbLinetypeTableRecord
  2
DASHED
 70
    0
  3
Dashed _ _ _ _ _ _ _ _ _ _ _ _ _ _ _ _ _
 72
   65
 73
    2
 40
19.05
 49
12.7
 74
    0
 49
-6.35
 74
    0
  0
LTYPE
  5
37
330
5
100
AcDbSymbolTableRecord
100
AcDbLinetypeTableRecord
  2
DASHEDTINY
 70
    0
  3
Dashed (.15x) _ _ _ _ _ _ _ _ _ _ _ _ _ _ _ _ _
 72
   65
 73
    2
 40
2.8575
 49
1.905
 74
    0
 49
-0.9525
 74
    0
  0
LTYPE
  5
38
330
5
100
AcDbSymbolTableRecord
100
AcDbLinetypeTableRecord
  2
DASHED2
 70
    0
  3
Dashed (.5x) _ _ _ _ _ _ _ _ _ _ _ _ _ _ _ _ _
 72
   65
 73
    2
 40
9.524999999999999
 49
6.35
 74
    0
 49
-3.175
 74
    0
  0
LTYPE
  5
39
330
5
100
AcDbSymbolTableRecord
100
AcDbLinetypeTableRecord
  2
DASHEDX2
 70
    0
  3
Dashed (2x) ____  ____  ____  ____  ____  ___
 72
   65
 73
    2
 40
38.09999999999999
 49
25.4
 74
    0
 49
-12.7
 74
    0
  0
LTYPE
  5
3A
330
5
100
AcDbSymbolTableRecord
100
AcDbLinetypeTableRecord
  2
DASHDOT
 70
    0
  3
Dash dot __ . __ . __ . __ . __ . __ . __ . __
 72
   65
 73
    4
 40
25.4
 49
12.7
 74
    0
 49
-6.35
 74
    0
 49
0
 74
    0
 49
-6.35
 74
    0
  0
LTYPE
  5
3B
330
5
100
AcDbSymbolTableRecord
100
AcDbLinetypeTableRecord
  2
DASHDOTTINY
 70
    0
  3
Dash dot (.15x) _._._._._._._._._._._._._._._.
 72
   65
 73
    4
 40
3.81
 49
1.905
 74
    0
 49
-0.9525
 74
    0
 49
0
 74
    0
 49
-0.9525
 74
    0
  0
LTYPE
  5
3C
330
5
100
AcDbSymbolTableRecord
100
AcDbLinetypeTableRecord
  2
DASHDOT2
 70
    0
  3
Dash dot (.5x) _._._._._._._._._._._._._._._.
 72
   65
 73
    4
 40
12.7
 49
6.35
 74
    0
 49
-3.175
 74
    0
 49
0
 74
    0
 49
-3.175
 74
    0
  0
LTYPE
  5
3D
330
5
100
AcDbSymbolTableRecord
100
AcDbLinetypeTableRecord
  2
DASHDOTX2
 70
    0
  3
Dash dot (2x) ____  .  ____  .  ____  .  ___
 72
   65
 73
    4
 40
50.8
 49
25.4
 74
    0
 49
-12.7
 74
    0
 49
0
 74
    0
 49
-12.7
 74
    0
  0
LTYPE
  5
3E
330
5
100
AcDbSymbolTableRecord
100
AcDbLinetypeTableRecord
  2
DIVIDE
 70
    0
  3
Divide ____ . . ____ . . ____ . . ____ . . ____
 72
   65
 73
    6
 40
31.75
 49
12.7
 74
    0
 49
-6.35
 74
    0
 49
0
 74
    0
 49
-6.35
 74
    0
 49
0
 74
    0
 49
-6.35
 74
    0
  0
LTYPE
  5
3F
330
5
100
AcDbSymbolTableRecord
100
AcDbLinetypeTableRecord
  2
DIVIDETINY
 70
    0
  3
Divide (.15x) __..__..__..__..__..__..__..__.._
 72
   65
 73
    6
 40
4.7625
 49
1.905
 74
    0
 49
-0.9525
 74
    0
 49
0
 74
    0
 49
-0.9525
 74
    0
 49
0
 74
    0
 49
-0.9525
 74
    0
  0
LTYPE
  5
40
330
5
100
AcDbSymbolTableRecord
100
AcDbLinetypeTableRecord
  2
DIVIDE2
 70
    0
  3
Divide (.5x) __..__..__..__..__..__..__..__.._
 72
   65
 73
    6
 40
15.875
 49
6.35
 74
    0
 49
-3.175
 74
    0
 49
0
 74
    0
 49
-3.175
 74
    0
 49
0
 74
    0
 49
-3.175
 74
    0
  0
LTYPE
  5
41
330
5
100
AcDbSymbolTableRecord
100
AcDbLinetypeTableRecord
  2
DIVIDEX2
 70
    0
  3
Divide (2x) ________  .  .  ________  .  .  _
 72
   65
 73
    6
 40
63.5
 49
25.4
 74
    0
 49
-12.7
 74
    0
 49
0
 74
    0
 49
-12.7
 74
    0
 49
0
 74
    0
 49
-12.7
 74
    0
  0
LTYPE
  5
42
330
5
100
AcDbSymbolTableRecord
100
AcDbLinetypeTableRecord
  2
BORDER
 70
    0
  3
Border __ __ . __ __ . __ __ . __ __ . __ __ .
 72
   65
 73
    6
 40
44.45
 49
12.7
 74
    0
 49
-6.35
 74
    0
 49
12.7
 74
    0
 49
-6.35
 74
    0
 49
0
 74
    0
 49
-6.35
 74
    0
  0
LTYPE
  5
43
330
5
100
AcDbSymbolTableRecord
100
AcDbLinetypeTableRecord
  2
BORDERTINY
 70
    0
  3
Border (.15x) __.__.__.__.__.__.__.__.__.__.__.
 72
   65
 73
    6
 40
6.6675
 49
1.905
 74
    0
 49
-0.9525
 74
    0
 49
1.905
 74
    0
 49
-0.9525
 74
    0
 49
0
 74
    0
 49
-0.9525
 74
    0
  0
LTYPE
  5
44
330
5
100
AcDbSymbolTableRecord
100
AcDbLinetypeTableRecord
  2
BORDER2
 70
    0
  3
Border (.5x) __.__.__.__.__.__.__.__.__.__.__.
 72
   65
 73
    6
 40
22.225
 49
6.35
 74
    0
 49
-3.175
 74
    0
 49
6.35
 74
    0
 49
-3.175
 74
    0
 49
0
 74
    0
 49
-3.175
 74
    0
  0
LTYPE
  5
45
330
5
100
AcDbSymbolTableRecord
100
AcDbLinetypeTableRecord
  2
BORDERX2
 70
    0
  3
Border (2x) ____  ____  .  ____  ____  .  ___
 72
   65
 73
    6
 40
88.89999999999999
 49
25.4
 74
    0
 49
-12.7
 74
    0
 49
25.4
 74
    0
 49
-12.7
 74
    0
 49
0
 74
    0
 49
-12.7
 74
    0
  0
LTYPE
  5
46
330
5
100
AcDbSymbolTableRecord
100
AcDbLinetypeTableRecord
  2
CENTER
 70
    0
  3
Center ____ _ ____ _ ____ _ ____ _ ____ _ ____
 72
   65
 73
    4
 40
50.8
 49
31.75
 74
    0
 49
-6.35
 74
    0
 49
6.35
 74
    0
 49
-6.35
 74
    0
  0
LTYPE
  5
47
330
5
100
AcDbSymbolTableRecord
100
AcDbLinetypeTableRecord
  2
CENTERTINY
 70
    0
  3
Center (.15x) ___ _ ___ _ ___ _ ___ _ ___ _ ___
 72
   65
 73
    4
 40
7.619999999999999
 49
4.7625
 74
    0
 49
-0.9525
 74
    0
 49
0.9525
 74
    0
 49
-0.9525
 74
    0
  0
LTYPE
  5
48
330
5
100
AcDbSymbolTableRecord
100
AcDbLinetypeTableRecord
  2
CENTER2
 70
    0
  3
Center (.5x) ___ _ ___ _ ___ _ ___ _ ___ _ ___
 72
   65
 73
    4
 40
28.575
 49
19.05
 74
    0
 49
-3.175
 74
    0
 49
3.175
 74
    0
 49
-3.175
 74
    0
  0
LTYPE
  5
49
330
5
100
AcDbSymbolTableRecord
100
AcDbLinetypeTableRecord
  2
CENTERX2
 70
    0
  3
Center (2x) ________  __  ________  __  _____
 72
   65
 73
    4
 40
101.6
 49
63.5
 74
    0
 49
-12.7
 74
    0
 49
12.7
 74
    0
 49
-12.7
 74
    0
  0
ENDTAB
  0
TABLE
  2
LAYER
  5
2
330
0
100
AcDbSymbolTable
 70
    1
  0
LAYER
  5
10
330
2
100
AcDbSymbolTableRecord
100
AcDbLayerTableRecord
  2
0
 70
    0
 62
    7
  6
CONTINUOUS
370
   -3
390
F
  0
LAYER
  5
4A
330
2
100
AcDbSymbolTableRecord
100
AcDbLayerTableRecord
  2
case-and-holes
 70
    0
 62
    7
  6
CONTINUOUS
370
    0
390
F
  0
LAYER
  5
4B
330
2
100
AcDbSymbolTableRecord
100
AcDbLayerTableRecord
  2
pro-micro
 70
    0
 62
    1
  6
CONTINUOUS
370
    0
390
F
  0
ENDTAB
  0
TABLE
  2
STYLE
  5
3
330
0
100
AcDbSymbolTable
 70
    3
  0
STYLE
  5
4C
330
2
100
AcDbSymbolTableRecord
100
AcDbTextStyleTableRecord
  2
Standard
 70
    0
 40
0
 41
1
 50
0
 71
    0
 42
1
  3
txt
  4

  0
ENDTAB
  0
TABLE
  2
VIEW
  5
6
330
0
100
AcDbSymbolTable
 70
    0
  0
ENDTAB
  0
TABLE
  2
UCS
  5
7
330
0
100
AcDbSymbolTable
 70
    0
  0
ENDTAB
  0
TABLE
  2
APPID
  5
9
330
0
100
AcDbSymbolTable
 70
    1
  0
APPID
  5
12
330
9
100
AcDbSymbolTableRecord
100
AcDbRegAppTableRecord
  2
ACAD
 70
    0
  0
APPID
  5
4D
330
9
100
AcDbSymbolTableRecord
100
AcDbRegAppTableRecord
  2
LibreCad
 70
    0
  0
ENDTAB
  0
TABLE
  2
DIMSTYLE
  5
A
330
0
100
AcDbSymbolTable
 70
    1
100
AcDbDimStyleTable
 71
    1
  0
DIMSTYLE
105
4E
330
A
100
AcDbSymbolTableRecord
100
AcDbDimStyleTableRecord
  2
Standard
 70
    0
 40
2.5
 41
2.5
 42
0.625
 43
0.38
 44
1.25
 45
0
 46
0
 47
0
 48
0
 49
1
140
2.5
141
0.09
142
0
143
25.4
144
1
145
0
146
1
147
0.625
148
0
 71
    0
 72
    0
 73
    0
 74
    1
 75
    0
 76
    0
 77
    0
 78
    8
 79
    0
170
    0
171
    2
172
    0
173
    0
174
    0
175
    0
176
    0
177
    0
178
    0
179
    0
271
    2
272
    4
273
    2
274
    2
275
    0
276
    0
277
    2
278
   44
279
    0
280
    0
281
    0
282
    0
283
    1
284
    0
285
    0
286
    0
288
    0
289
    3
340
STANDARD
341

371
   -2
372
   -2
  0
ENDTAB
  0
TABLE
  2
BLOCK_RECORD
  5
1
330
0
100
AcDbSymbolTable
 70
    2
  0
BLOCK_RECORD
  5
1F
330
1
100
AcDbSymbolTableRecord
100
AcDbBlockTableRecord
  2
*Model_Space
 70
    0
280
    1
281
    0
  0
BLOCK_RECORD
  5
1E
330
1
100
AcDbSymbolTableRecord
100
AcDbBlockTableRecord
  2
*Paper_Space
 70
    0
280
    1
281
    0
  0
ENDTAB
  0
ENDSEC
  0
SECTION
  2
BLOCKS
  0
BLOCK
  5
20
330
1F
100
AcDbEntity
  8
0
100
AcDbBlockBegin
  2
*Model_Space
 70
    0
 10
0
 20
0
 30
0
  3
*Model_Space
  1

  0
ENDBLK
  5
21
330
1F
100
AcDbEntity
  8
0
100
AcDbBlockEnd
  0
BLOCK
  5
1C
330
1B
100
AcDbEntity
  8
0
100
AcDbBlockBegin
  2
*Paper_Space
 70
    0
 10
0
 20
0
 30
0
  3
*Paper_Space
  1

  0
ENDBLK
  5
1D
330
1F
100
AcDbEntity
  8
0
100
AcDbBlockEnd
  0
ENDSEC
  0
SECTION
  2
ENTITIES
  0
LINE
  5
4F
100
AcDbEntity
  8
0
  6
ByLayer
 62
    0
370
   -1
100
AcDbLine
 10
26.78404667828477
 20
36.92888126408303
 11
25.99504667828479
 21
37.06828126408303
  0
LINE
  5
50
100
AcDbEntity
  8
0
  6
ByLayer
 62
    0
370
   -1
100
AcDbLine
 10
25.99504667828479
 20
37.06828126408303
 11
25.45804667828478
 21
34.01458126408303
  0
LINE
  5
51
100
AcDbEntity
  8
0
  6
ByLayer
 62
    0
370
   -1
100
AcDbLine
 10
25.45804667828478
 20
34.01458126408303
 11
26.24604667828479
 21
33.87668126408303
  0
LINE
  5
52
100
AcDbEntity
  8
0
  6
ByLayer
 62
    0
370
   -1
100
AcDbLine
 10
26.24604667828479
 20
33.87668126408303
 11
25.23904667828478
 21
28.16328126408303
  0
LINE
  5
53
100
AcDbEntity
  8
0
  6
ByLayer
 62
    0
370
   -1
100
AcDbLine
 10
25.23904667828478
 20
28.16328126408303
 11
24.45104667828477
 21
28.30248126408303
  0
LINE
  5
54
100
AcDbEntity
  8
0
  6
ByLayer
 62
    0
370
   -1
100
AcDbLine
 10
24.45104667828477
 20
28.30248126408303
 11
23.91304667828479
 21
25.25008126408304
  0
LINE
  5
55
100
AcDbEntity
  8
0
  6
ByLayer
 62
    0
370
   -1
100
AcDbLine
 10
23.91304667828479
 20
25.25008126408304
 11
24.70004667828477
 21
25.11098126408302
  0
LINE
  5
56
100
AcDbEntity
  8
0
  6
ByLayer
 62
    0
370
   -1
100
AcDbLine
 10
24.70004667828477
 20
25.11098126408302
 11
24.52704667828477
 21
24.12568126408303
  0
LINE
  5
57
100
AcDbEntity
  8
0
  6
ByLayer
 62
    0
370
   -1
100
AcDbLine
 10
24.52704667828477
 20
24.12568126408303
 11
38.31404667828477
 21
21.69478126408303
  0
LINE
  5
58
100
AcDbEntity
  8
0
  6
ByLayer
 62
    0
370
   -1
100
AcDbLine
 10
38.31404667828477
 20
21.69478126408303
 11
38.48704667828478
 21
22.68008126408303
  0
LINE
  5
59
100
AcDbEntity
  8
0
  6
ByLayer
 62
    0
370
   -1
100
AcDbLine
 10
38.48704667828478
 20
22.68008126408303
 11
39.27604667828479
 21
22.54088126408303
  0
LINE
  5
5A
100
AcDbEntity
  8
0
  6
ByLayer
 62
    0
370
   -1
100
AcDbLine
 10
39.27604667828479
 20
22.54088126408303
 11
39.81304667828476
 21
25.59458126408303
  0
LINE
  5
5B
100
AcDbEntity
  8
0
  6
ByLayer
 62
    0
370
   -1
100
AcDbLine
 10
39.81304667828476
 20
25.59458126408303
 11
39.02604667828479
 21
25.73248126408302
  0
LINE
  5
5C
100
AcDbEntity
  8
0
  6
ByLayer
 62
    0
370
   -1
100
AcDbLine
 10
39.02604667828479
 20
25.73248126408302
 11
40.03204667828479
 21
31.44438126408303
  0
LINE
  5
5D
100
AcDbEntity
  8
0
  6
ByLayer
 62
    0
370
   -1
100
AcDbLine
 10
40.03204667828479
 20
31.44438126408303
 11
40.82104667828477
 21
31.30658126408304
  0
LINE
  5
5E
100
AcDbEntity
  8
0
  6
ByLayer
 62
    0
370
   -1
100
AcDbLine
 10
40.82104667828477
 20
31.30658126408304
 11
41.35904667828478
 21
34.35888126408304
  0
LINE
  5
5F
100
AcDbEntity
  8
0
  6
ByLayer
 62
    0
370
   -1
100
AcDbLine
 10
41.35904667828478
 20
34.35888126408304
 11
40.57204667828478
 21
34.49828126408303
  0
LINE
  5
60
100
AcDbEntity
  8
0
  6
ByLayer
 62
    0
370
   -1
100
AcDbLine
 10
40.57204667828478
 20
34.49828126408303
 11
40.74504667828479
 21
35.48218126408304
  0
LINE
  5
61
100
AcDbEntity
  8
0
  6
ByLayer
 62
    0
370
   -1
100
AcDbLine
 10
40.74504667828479
 20
35.48218126408304
 11
26.95804667828478
 21
37.91278126408304
  0
LINE
  5
62
100
AcDbEntity
  8
0
  6
ByLayer
 62
    0
370
   -1
100
AcDbLine
 10
26.95804667828478
 20
37.91278126408304
 11
26.78404667828477
 21
36.92888126408303
  0
LINE
  5
63
100
AcDbEntity
  8
0
  6
ByLayer
 62
    0
370
   -1
100
AcDbLine
 10
103.2730466782848
 20
36.55958126408302
 11
103.2730466782848
 21
35.56048126408302
  0
LINE
  5
64
100
AcDbEntity
  8
0
  6
ByLayer
 62
    0
370
   -1
100
AcDbLine
 10
103.2730466782848
 20
35.56048126408302
 11
102.4720466782848
 21
35.56048126408302
  0
LINE
  5
65
100
AcDbEntity
  8
0
  6
ByLayer
 62
    0
370
   -1
100
AcDbLine
 10
102.4720466782848
 20
35.56048126408302
 11
102.4720466782848
 21
32.45998126408303
  0
LINE
  5
66
100
AcDbEntity
  8
0
  6
ByLayer
 62
    0
370
   -1
100
AcDbLine
 10
102.4720466782848
 20
32.45998126408303
 11
103.2730466782848
 21
32.45998126408303
  0
LINE
  5
67
100
AcDbEntity
  8
0
  6
ByLayer
 62
    0
370
   -1
100
AcDbLine
 10
103.2730466782848
 20
32.45998126408303
 11
103.2730466782848
 21
26.65988126408303
  0
LINE
  5
68
100
AcDbEntity
  8
0
  6
ByLayer
 62
    0
370
   -1
100
AcDbLine
 10
103.2730466782848
 20
26.65988126408303
 11
102.4720466782848
 21
26.65988126408303
  0
LINE
  5
69
100
AcDbEntity
  8
0
  6
ByLayer
 62
    0
370
   -1
100
AcDbLine
 10
102.4720466782848
 20
26.65988126408303
 11
102.4720466782848
 21
23.55928126408303
  0
LINE
  5
6A
100
AcDbEntity
  8
0
  6
ByLayer
 62
    0
370
   -1
100
AcDbLine
 10
102.4720466782848
 20
23.55928126408303
 11
103.2730466782848
 21
23.55928126408303
  0
LINE
  5
6B
100
AcDbEntity
  8
0
  6
ByLayer
 62
    0
370
   -1
100
AcDbLine
 10
103.2730466782848
 20
23.55928126408303
 11
103.2730466782848
 21
22.56018126408303
  0
LINE
  5
6C
100
AcDbEntity
  8
0
  6
ByLayer
 62
    0
370
   -1
100
AcDbLine
 10
103.2730466782848
 20
22.56018126408303
 11
117.2730466782848
 21
22.56018126408303
  0
LINE
  5
6D
100
AcDbEntity
  8
0
  6
ByLayer
 62
    0
370
   -1
100
AcDbLine
 10
117.2730466782848
 20
22.56018126408303
 11
117.2730466782848
 21
23.55928126408303
  0
LINE
  5
6E
100
AcDbEntity
  8
0
  6
ByLayer
 62
    0
370
   -1
100
AcDbLine
 10
117.2730466782848
 20
23.55928126408303
 11
118.0730466782847
 21
23.55928126408303
  0
LINE
  5
6F
100
AcDbEntity
  8
0
  6
ByLayer
 62
    0
370
   -1
100
AcDbLine
 10
118.0730466782847
 20
23.55928126408303
 11
118.0730466782847
 21
26.65988126408303
  0
LINE
  5
70
100
AcDbEntity
  8
0
  6
ByLayer
 62
    0
370
   -1
100
AcDbLine
 10
118.0730466782847
 20
26.65988126408303
 11
117.2730466782848
 21
26.65988126408303
  0
LINE
  5
71
100
AcDbEntity
  8
0
  6
ByLayer
 62
    0
370
   -1
100
AcDbLine
 10
117.2730466782848
 20
26.65988126408303
 11
117.2730466782848
 21
32.45998126408303
  0
LINE
  5
72
100
AcDbEntity
  8
0
  6
ByLayer
 62
    0
370
   -1
100
AcDbLine
 10
117.2730466782848
 20
32.45998126408303
 11
118.0730466782847
 21
32.45998126408303
  0
LINE
  5
73
100
AcDbEntity
  8
0
  6
ByLayer
 62
    0
370
   -1
100
AcDbLine
 10
118.0730466782847
 20
32.45998126408303
 11
118.0730466782847
 21
35.56048126408302
  0
LINE
  5
74
100
AcDbEntity
  8
0
  6
ByLayer
 62
    0
370
   -1
100
AcDbLine
 10
118.0730466782847
 20
35.56048126408302
 11
117.2730466782848
 21
35.56048126408302
  0
LINE
  5
75
100
AcDbEntity
  8
0
  6
ByLayer
 62
    0
370
   -1
100
AcDbLine
 10
117.2730466782848
 20
35.56048126408302
 11
117.2730466782848
 21
36.55958126408302
  0
LINE
  5
76
100
AcDbEntity
  8
0
  6
ByLayer
 62
    0
370
   -1
100
AcDbLine
 10
117.2730466782848
 20
36.55958126408302
 11
103.2730466782848
 21
36.55958126408302
  0
LINE
  5
77
100
AcDbEntity
  8
0
  6
ByLayer
 62
    0
370
   -1
100
AcDbLine
 10
122.3230466782847
 20
36.55958126408302
 11
122.3230466782847
 21
35.56048126408302
  0
LINE
  5
78
100
AcDbEntity
  8
0
  6
ByLayer
 62
    0
370
   -1
100
AcDbLine
 10
122.3230466782847
 20
35.56048126408302
 11
121.5220466782847
 21
35.56048126408302
  0
LINE
  5
79
100
AcDbEntity
  8
0
  6
ByLayer
 62
    0
370
   -1
100
AcDbLine
 10
121.5220466782847
 20
35.56048126408302
 11
121.5220466782847
 21
32.45998126408303
  0
LINE
  5
7A
100
AcDbEntity
  8
0
  6
ByLayer
 62
    0
370
   -1
100
AcDbLine
 10
121.5220466782847
 20
32.45998126408303
 11
122.3230466782847
 21
32.45998126408303
  0
LINE
  5
7B
100
AcDbEntity
  8
0
  6
ByLayer
 62
    0
370
   -1
100
AcDbLine
 10
122.3230466782847
 20
32.45998126408303
 11
122.3230466782847
 21
26.65988126408303
  0
LINE
  5
7C
100
AcDbEntity
  8
0
  6
ByLayer
 62
    0
370
   -1
100
AcDbLine
 10
122.3230466782847
 20
26.65988126408303
 11
121.5220466782847
 21
26.65988126408303
  0
LINE
  5
7D
100
AcDbEntity
  8
0
  6
ByLayer
 62
    0
370
   -1
100
AcDbLine
 10
121.5220466782847
 20
26.65988126408303
 11
121.5220466782847
 21
23.55928126408303
  0
LINE
  5
7E
100
AcDbEntity
  8
0
  6
ByLayer
 62
    0
370
   -1
100
AcDbLine
 10
121.5220466782847
 20
23.55928126408303
 11
122.3230466782847
 21
23.55928126408303
  0
LINE
  5
7F
100
AcDbEntity
  8
0
  6
ByLayer
 62
    0
370
   -1
100
AcDbLine
 10
122.3230466782847
 20
23.55928126408303
 11
122.3230466782847
 21
22.56018126408303
  0
LINE
  5
80
100
AcDbEntity
  8
0
  6
ByLayer
 62
    0
370
   -1
100
AcDbLine
 10
122.3230466782847
 20
22.56018126408303
 11
136.3230466782847
 21
22.56018126408303
  0
LINE
  5
81
100
AcDbEntity
  8
0
  6
ByLayer
 62
    0
370
   -1
100
AcDbLine
 10
136.3230466782847
 20
22.56018126408303
 11
136.3230466782847
 21
23.55928126408303
  0
LINE
  5
82
100
AcDbEntity
  8
0
  6
ByLayer
 62
    0
370
   -1
100
AcDbLine
 10
136.3230466782847
 20
23.55928126408303
 11
137.1230466782847
 21
23.55928126408303
  0
LINE
  5
83
100
AcDbEntity
  8
0
  6
ByLayer
 62
    0
370
   -1
100
AcDbLine
 10
137.1230466782847
 20
23.55928126408303
 11
137.1230466782847
 21
26.65988126408303
  0
LINE
  5
84
100
AcDbEntity
  8
0
  6
ByLayer
 62
    0
370
   -1
100
AcDbLine
 10
137.1230466782847
 20
26.65988126408303
 11
136.3230466782847
 21
26.65988126408303
  0
LINE
  5
85
100
AcDbEntity
  8
0
  6
ByLayer
 62
    0
370
   -1
100
AcDbLine
 10
136.3230466782847
 20
26.65988126408303
 11
136.3230466782847
 21
32.45998126408303
  0
LINE
  5
86
100
AcDbEntity
  8
0
  6
ByLayer
 62
    0
370
   -1
100
AcDbLine
 10
136.3230466782847
 20
32.45998126408303
 11
137.1230466782847
 21
32.45998126408303
  0
LINE
  5
87
100
AcDbEntity
  8
0
  6
ByLayer
 62
    0
370
   -1
100
AcDbLine
 10
137.1230466782847
 20
32.45998126408303
 11
137.1230466782847
 21
35.56048126408302
  0
LINE
  5
88
100
AcDbEntity
  8
0
  6
ByLayer
 62
    0
370
   -1
100
AcDbLine
 10
137.1230466782847
 20
35.56048126408302
 11
136.3230466782847
 21
35.56048126408302
  0
LINE
  5
89
100
AcDbEntity
  8
0
  6
ByLayer
 62
    0
370
   -1
100
AcDbLine
 10
136.3230466782847
 20
35.56048126408302
 11
136.3230466782847
 21
36.55958126408302
  0
LINE
  5
8A
100
AcDbEntity
  8
0
  6
ByLayer
 62
    0
370
   -1
100
AcDbLine
 10
136.3230466782847
 20
36.55958126408302
 11
122.3230466782847
 21
36.55958126408302
  0
LINE
  5
8B
100
AcDbEntity
  8
0
  6
ByLayer
 62
    0
370
   -1
100
AcDbLine
 10
46.12304667828477
 20
41.32208126408303
 11
46.12304667828477
 21
40.32158126408303
  0
LINE
  5
8C
100
AcDbEntity
  8
0
  6
ByLayer
 62
    0
370
   -1
100
AcDbLine
 10
46.12304667828477
 20
40.32158126408303
 11
45.32204667828478
 21
40.32158126408303
  0
LINE
  5
8D
100
AcDbEntity
  8
0
  6
ByLayer
 62
    0
370
   -1
100
AcDbLine
 10
45.32204667828478
 20
40.32158126408303
 11
45.32204667828478
 21
37.22238126408303
  0
LINE
  5
8E
100
AcDbEntity
  8
0
  6
ByLayer
 62
    0
370
   -1
100
AcDbLine
 10
45.32204667828478
 20
37.22238126408303
 11
46.12304667828477
 21
37.22238126408303
  0
LINE
  5
8F
100
AcDbEntity
  8
0
  6
ByLayer
 62
    0
370
   -1
100
AcDbLine
 10
46.12304667828477
 20
37.22238126408303
 11
46.12304667828477
 21
31.42238126408303
  0
LINE
  5
90
100
AcDbEntity
  8
0
  6
ByLayer
 62
    0
370
   -1
100
AcDbLine
 10
46.12304667828477
 20
31.42238126408303
 11
45.32204667828478
 21
31.42238126408303
  0
LINE
  5
91
100
AcDbEntity
  8
0
  6
ByLayer
 62
    0
370
   -1
100
AcDbLine
 10
45.32204667828478
 20
31.42238126408303
 11
45.32204667828478
 21
28.32178126408303
  0
LINE
  5
92
100
AcDbEntity
  8
0
  6
ByLayer
 62
    0
370
   -1
100
AcDbLine
 10
45.32204667828478
 20
28.32178126408303
 11
46.12304667828477
 21
28.32178126408303
  0
LINE
  5
93
100
AcDbEntity
  8
0
  6
ByLayer
 62
    0
370
   -1
100
AcDbLine
 10
46.12304667828477
 20
28.32178126408303
 11
46.12304667828477
 21
27.32128126408303
  0
LINE
  5
94
100
AcDbEntity
  8
0
  6
ByLayer
 62
    0
370
   -1
100
AcDbLine
 10
46.12304667828477
 20
27.32128126408303
 11
60.12304667828477
 21
27.32128126408303
  0
LINE
  5
95
100
AcDbEntity
  8
0
  6
ByLayer
 62
    0
370
   -1
100
AcDbLine
 10
60.12304667828477
 20
27.32128126408303
 11
60.12304667828477
 21
28.32178126408303
  0
LINE
  5
96
100
AcDbEntity
  8
0
  6
ByLayer
 62
    0
370
   -1
100
AcDbLine
 10
60.12304667828477
 20
28.32178126408303
 11
60.92304667828478
 21
28.32178126408303
  0
LINE
  5
97
100
AcDbEntity
  8
0
  6
ByLayer
 62
    0
370
   -1
100
AcDbLine
 10
60.92304667828478
 20
28.32178126408303
 11
60.92304667828478
 21
31.42238126408303
  0
LINE
  5
98
100
AcDbEntity
  8
0
  6
ByLayer
 62
    0
370
   -1
100
AcDbLine
 10
60.92304667828478
 20
31.42238126408303
 11
60.12304667828477
 21
31.42238126408303
  0
LINE
  5
99
100
AcDbEntity
  8
0
  6
ByLayer
 62
    0
370
   -1
100
AcDbLine
 10
60.12304667828477
 20
31.42238126408303
 11
60.12304667828477
 21
37.22238126408303
  0
LINE
  5
9A
100
AcDbEntity
  8
0
  6
ByLayer
 62
    0
370
   -1
100
AcDbLine
 10
60.12304667828477
 20
37.22238126408303
 11
60.92304667828478
 21
37.22238126408303
  0
LINE
  5
9B
100
AcDbEntity
  8
0
  6
ByLayer
 62
    0
370
   -1
100
AcDbLine
 10
60.92304667828478
 20
37.22238126408303
 11
60.92304667828478
 21
40.32158126408303
  0
LINE
  5
9C
100
AcDbEntity
  8
0
  6
ByLayer
 62
    0
370
   -1
100
AcDbLine
 10
60.92304667828478
 20
40.32158126408303
 11
60.12304667828477
 21
40.32158126408303
  0
LINE
  5
9D
100
AcDbEntity
  8
0
  6
ByLayer
 62
    0
370
   -1
100
AcDbLine
 10
60.12304667828477
 20
40.32158126408303
 11
60.12304667828477
 21
41.32208126408303
  0
LINE
  5
9E
100
AcDbEntity
  8
0
  6
ByLayer
 62
    0
370
   -1
100
AcDbLine
 10
60.12304667828477
 20
41.32208126408303
 11
46.12304667828477
 21
41.32208126408303
  0
LINE
  5
9F
100
AcDbEntity
  8
0
  6
ByLayer
 62
    0
370
   -1
100
AcDbLine
 10
84.22304667828479
 20
41.32208126408303
 11
84.22304667828479
 21
40.32158126408303
  0
LINE
  5
A0
100
AcDbEntity
  8
0
  6
ByLayer
 62
    0
370
   -1
100
AcDbLine
 10
84.22304667828479
 20
40.32158126408303
 11
83.42204667828474
 21
40.32158126408303
  0
LINE
  5
A1
100
AcDbEntity
  8
0
  6
ByLayer
 62
    0
370
   -1
100
AcDbLine
 10
83.42204667828474
 20
40.32158126408303
 11
83.42204667828474
 21
37.22238126408303
  0
LINE
  5
A2
100
AcDbEntity
  8
0
  6
ByLayer
 62
    0
370
   -1
100
AcDbLine
 10
83.42204667828474
 20
37.22238126408303
 11
84.22304667828479
 21
37.22238126408303
  0
LINE
  5
A3
100
AcDbEntity
  8
0
  6
ByLayer
 62
    0
370
   -1
100
AcDbLine
 10
84.22304667828479
 20
37.22238126408303
 11
84.22304667828479
 21
31.42238126408303
  0
LINE
  5
A4
100
AcDbEntity
  8
0
  6
ByLayer
 62
    0
370
   -1
100
AcDbLine
 10
84.22304667828479
 20
31.42238126408303
 11
83.42204667828474
 21
31.42238126408303
  0
LINE
  5
A5
100
AcDbEntity
  8
0
  6
ByLayer
 62
    0
370
   -1
100
AcDbLine
 10
83.42204667828474
 20
31.42238126408303
 11
83.42204667828474
 21
28.32178126408303
  0
LINE
  5
A6
100
AcDbEntity
  8
0
  6
ByLayer
 62
    0
370
   -1
100
AcDbLine
 10
83.42204667828474
 20
28.32178126408303
 11
84.22304667828479
 21
28.32178126408303
  0
LINE
  5
A7
100
AcDbEntity
  8
0
  6
ByLayer
 62
    0
370
   -1
100
AcDbLine
 10
84.22304667828479
 20
28.32178126408303
 11
84.22304667828479
 21
27.32128126408303
  0
LINE
  5
A8
100
AcDbEntity
  8
0
  6
ByLayer
 62
    0
370
   -1
100
AcDbLine
 10
84.22304667828479
 20
27.32128126408303
 11
98.22304667828479
 21
27.32128126408303
  0
LINE
  5
A9
100
AcDbEntity
  8
0
  6
ByLayer
 62
    0
370
   -1
100
AcDbLine
 10
98.22304667828479
 20
27.32128126408303
 11
98.22304667828479
 21
28.32178126408303
  0
LINE
  5
AA
100
AcDbEntity
  8
0
  6
ByLayer
 62
    0
370
   -1
100
AcDbLine
 10
98.22304667828479
 20
28.32178126408303
 11
99.0230466782848
 21
28.32178126408303
  0
LINE
  5
AB
100
AcDbEntity
  8
0
  6
ByLayer
 62
    0
370
   -1
100
AcDbLine
 10
99.0230466782848
 20
28.32178126408303
 11
99.0230466782848
 21
31.42238126408303
  0
LINE
  5
AC
100
AcDbEntity
  8
0
  6
ByLayer
 62
    0
370
   -1
100
AcDbLine
 10
99.0230466782848
 20
31.42238126408303
 11
98.22304667828479
 21
31.42238126408303
  0
LINE
  5
AD
100
AcDbEntity
  8
0
  6
ByLayer
 62
    0
370
   -1
100
AcDbLine
 10
98.22304667828479
 20
31.42238126408303
 11
98.22304667828479
 21
37.22238126408303
  0
LINE
  5
AE
100
AcDbEntity
  8
0
  6
ByLayer
 62
    0
370
   -1
100
AcDbLine
 10
98.22304667828479
 20
37.22238126408303
 11
99.0230466782848
 21
37.22238126408303
  0
LINE
  5
AF
100
AcDbEntity
  8
0
  6
ByLayer
 62
    0
370
   -1
100
AcDbLine
 10
99.0230466782848
 20
37.22238126408303
 11
99.0230466782848
 21
40.32158126408303
  0
LINE
  5
B0
100
AcDbEntity
  8
0
  6
ByLayer
 62
    0
370
   -1
100
AcDbLine
 10
99.0230466782848
 20
40.32158126408303
 11
98.22304667828479
 21
40.32158126408303
  0
LINE
  5
B1
100
AcDbEntity
  8
0
  6
ByLayer
 62
    0
370
   -1
100
AcDbLine
 10
98.22304667828479
 20
40.32158126408303
 11
98.22304667828479
 21
41.32208126408303
  0
LINE
  5
B2
100
AcDbEntity
  8
0
  6
ByLayer
 62
    0
370
   -1
100
AcDbLine
 10
98.22304667828479
 20
41.32208126408303
 11
84.22304667828479
 21
41.32208126408303
  0
LINE
  5
B3
100
AcDbEntity
  8
0
  6
ByLayer
 62
    0
370
   -1
100
AcDbLine
 10
103.2730466782848
 20
55.60958126408302
 11
103.2730466782848
 21
54.61048126408303
  0
LINE
  5
B4
100
AcDbEntity
  8
0
  6
ByLayer
 62
    0
370
   -1
100
AcDbLine
 10
103.2730466782848
 20
54.61048126408303
 11
102.4720466782848
 21
54.61048126408303
  0
LINE
  5
B5
100
AcDbEntity
  8
0
  6
ByLayer
 62
    0
370
   -1
100
AcDbLine
 10
102.4720466782848
 20
54.61048126408303
 11
102.4720466782848
 21
51.50988126408303
  0
LINE
  5
B6
100
AcDbEntity
  8
0
  6
ByLayer
 62
    0
370
   -1
100
AcDbLine
 10
102.4720466782848
 20
51.50988126408303
 11
103.2730466782848
 21
51.50988126408303
  0
LINE
  5
B7
100
AcDbEntity
  8
0
  6
ByLayer
 62
    0
370
   -1
100
AcDbLine
 10
103.2730466782848
 20
51.50988126408303
 11
103.2730466782848
 21
45.70988126408303
  0
LINE
  5
B8
100
AcDbEntity
  8
0
  6
ByLayer
 62
    0
370
   -1
100
AcDbLine
 10
103.2730466782848
 20
45.70988126408303
 11
102.4720466782848
 21
45.70988126408303
  0
LINE
  5
B9
100
AcDbEntity
  8
0
  6
ByLayer
 62
    0
370
   -1
100
AcDbLine
 10
102.4720466782848
 20
45.70988126408303
 11
102.4720466782848
 21
42.60928126408303
  0
LINE
  5
BA
100
AcDbEntity
  8
0
  6
ByLayer
 62
    0
370
   -1
100
AcDbLine
 10
102.4720466782848
 20
42.60928126408303
 11
103.2730466782848
 21
42.60928126408303
  0
LINE
  5
BB
100
AcDbEntity
  8
0
  6
ByLayer
 62
    0
370
   -1
100
AcDbLine
 10
103.2730466782848
 20
42.60928126408303
 11
103.2730466782848
 21
41.61028126408303
  0
LINE
  5
BC
100
AcDbEntity
  8
0
  6
ByLayer
 62
    0
370
   -1
100
AcDbLine
 10
103.2730466782848
 20
41.61028126408303
 11
117.2730466782848
 21
41.61028126408303
  0
LINE
  5
BD
100
AcDbEntity
  8
0
  6
ByLayer
 62
    0
370
   -1
100
AcDbLine
 10
117.2730466782848
 20
41.61028126408303
 11
117.2730466782848
 21
42.60928126408303
  0
LINE
  5
BE
100
AcDbEntity
  8
0
  6
ByLayer
 62
    0
370
   -1
100
AcDbLine
 10
117.2730466782848
 20
42.60928126408303
 11
118.0730466782847
 21
42.60928126408303
  0
LINE
  5
BF
100
AcDbEntity
  8
0
  6
ByLayer
 62
    0
370
   -1
100
AcDbLine
 10
118.0730466782847
 20
42.60928126408303
 11
118.0730466782847
 21
45.70988126408303
  0
LINE
  5
C0
100
AcDbEntity
  8
0
  6
ByLayer
 62
    0
370
   -1
100
AcDbLine
 10
118.0730466782847
 20
45.70988126408303
 11
117.2730466782848
 21
45.70988126408303
  0
LINE
  5
C1
100
AcDbEntity
  8
0
  6
ByLayer
 62
    0
370
   -1
100
AcDbLine
 10
117.2730466782848
 20
45.70988126408303
 11
117.2730466782848
 21
51.50988126408303
  0
LINE
  5
C2
100
AcDbEntity
  8
0
  6
ByLayer
 62
    0
370
   -1
100
AcDbLine
 10
117.2730466782848
 20
51.50988126408303
 11
118.0730466782847
 21
51.50988126408303
  0
LINE
  5
C3
100
AcDbEntity
  8
0
  6
ByLayer
 62
    0
370
   -1
100
AcDbLine
 10
118.0730466782847
 20
51.50988126408303
 11
118.0730466782847
 21
54.61048126408303
  0
LINE
  5
C4
100
AcDbEntity
  8
0
  6
ByLayer
 62
    0
370
   -1
100
AcDbLine
 10
118.0730466782847
 20
54.61048126408303
 11
117.2730466782848
 21
54.61048126408303
  0
LINE
  5
C5
100
AcDbEntity
  8
0
  6
ByLayer
 62
    0
370
   -1
100
AcDbLine
 10
117.2730466782848
 20
54.61048126408303
 11
117.2730466782848
 21
55.60958126408302
  0
LINE
  5
C6
100
AcDbEntity
  8
0
  6
ByLayer
 62
    0
370
   -1
100
AcDbLine
 10
117.2730466782848
 20
55.60958126408302
 11
103.2730466782848
 21
55.60958126408302
  0
LINE
  5
C7
100
AcDbEntity
  8
0
  6
ByLayer
 62
    0
370
   -1
100
AcDbLine
 10
122.3230466782847
 20
55.60958126408302
 11
122.3230466782847
 21
54.61048126408303
  0
LINE
  5
C8
100
AcDbEntity
  8
0
  6
ByLayer
 62
    0
370
   -1
100
AcDbLine
 10
122.3230466782847
 20
54.61048126408303
 11
121.5220466782847
 21
54.61048126408303
  0
LINE
  5
C9
100
AcDbEntity
  8
0
  6
ByLayer
 62
    0
370
   -1
100
AcDbLine
 10
121.5220466782847
 20
54.61048126408303
 11
121.5220466782847
 21
51.50988126408303
  0
LINE
  5
CA
100
AcDbEntity
  8
0
  6
ByLayer
 62
    0
370
   -1
100
AcDbLine
 10
121.5220466782847
 20
51.50988126408303
 11
122.3230466782847
 21
51.50988126408303
  0
LINE
  5
CB
100
AcDbEntity
  8
0
  6
ByLayer
 62
    0
370
   -1
100
AcDbLine
 10
122.3230466782847
 20
51.50988126408303
 11
122.3230466782847
 21
45.70988126408303
  0
LINE
  5
CC
100
AcDbEntity
  8
0
  6
ByLayer
 62
    0
370
   -1
100
AcDbLine
 10
122.3230466782847
 20
45.70988126408303
 11
121.5220466782847
 21
45.70988126408303
  0
LINE
  5
CD
100
AcDbEntity
  8
0
  6
ByLayer
 62
    0
370
   -1
100
AcDbLine
 10
121.5220466782847
 20
45.70988126408303
 11
121.5220466782847
 21
42.60928126408303
  0
LINE
  5
CE
100
AcDbEntity
  8
0
  6
ByLayer
 62
    0
370
   -1
100
AcDbLine
 10
121.5220466782847
 20
42.60928126408303
 11
122.3230466782847
 21
42.60928126408303
  0
LINE
  5
CF
100
AcDbEntity
  8
0
  6
ByLayer
 62
    0
370
   -1
100
AcDbLine
 10
122.3230466782847
 20
42.60928126408303
 11
122.3230466782847
 21
41.61028126408303
  0
LINE
  5
D0
100
AcDbEntity
  8
0
  6
ByLayer
 62
    0
370
   -1
100
AcDbLine
 10
122.3230466782847
 20
41.61028126408303
 11
136.3230466782847
 21
41.61028126408303
  0
LINE
  5
D1
100
AcDbEntity
  8
0
  6
ByLayer
 62
    0
370
   -1
100
AcDbLine
 10
136.3230466782847
 20
41.61028126408303
 11
136.3230466782847
 21
42.60928126408303
  0
LINE
  5
D2
100
AcDbEntity
  8
0
  6
ByLayer
 62
    0
370
   -1
100
AcDbLine
 10
136.3230466782847
 20
42.60928126408303
 11
137.1230466782847
 21
42.60928126408303
  0
LINE
  5
D3
100
AcDbEntity
  8
0
  6
ByLayer
 62
    0
370
   -1
100
AcDbLine
 10
137.1230466782847
 20
42.60928126408303
 11
137.1230466782847
 21
45.70988126408303
  0
LINE
  5
D4
100
AcDbEntity
  8
0
  6
ByLayer
 62
    0
370
   -1
100
AcDbLine
 10
137.1230466782847
 20
45.70988126408303
 11
136.3230466782847
 21
45.70988126408303
  0
LINE
  5
D5
100
AcDbEntity
  8
0
  6
ByLayer
 62
    0
370
   -1
100
AcDbLine
 10
136.3230466782847
 20
45.70988126408303
 11
136.3230466782847
 21
51.50988126408303
  0
LINE
  5
D6
100
AcDbEntity
  8
0
  6
ByLayer
 62
    0
370
   -1
100
AcDbLine
 10
136.3230466782847
 20
51.50988126408303
 11
137.1230466782847
 21
51.50988126408303
  0
LINE
  5
D7
100
AcDbEntity
  8
0
  6
ByLayer
 62
    0
370
   -1
100
AcDbLine
 10
137.1230466782847
 20
51.50988126408303
 11
137.1230466782847
 21
54.61048126408303
  0
LINE
  5
D8
100
AcDbEntity
  8
0
  6
ByLayer
 62
    0
370
   -1
100
AcDbLine
 10
137.1230466782847
 20
54.61048126408303
 11
136.3230466782847
 21
54.61048126408303
  0
LINE
  5
D9
100
AcDbEntity
  8
0
  6
ByLayer
 62
    0
370
   -1
100
AcDbLine
 10
136.3230466782847
 20
54.61048126408303
 11
136.3230466782847
 21
55.60958126408302
  0
LINE
  5
DA
100
AcDbEntity
  8
0
  6
ByLayer
 62
    0
370
   -1
100
AcDbLine
 10
136.3230466782847
 20
55.60958126408302
 11
122.3230466782847
 21
55.60958126408302
  0
LINE
  5
DB
100
AcDbEntity
  8
0
  6
ByLayer
 62
    0
370
   -1
100
AcDbLine
 10
27.07304667828479
 20
57.99078126408302
 11
27.07304667828479
 21
56.99028126408303
  0
LINE
  5
DC
100
AcDbEntity
  8
0
  6
ByLayer
 62
    0
370
   -1
100
AcDbLine
 10
27.07304667828479
 20
56.99028126408303
 11
26.27204667828477
 21
56.99028126408303
  0
LINE
  5
DD
100
AcDbEntity
  8
0
  6
ByLayer
 62
    0
370
   -1
100
AcDbLine
 10
26.27204667828477
 20
56.99028126408303
 11
26.27204667828477
 21
53.89118126408303
  0
LINE
  5
DE
100
AcDbEntity
  8
0
  6
ByLayer
 62
    0
370
   -1
100
AcDbLine
 10
26.27204667828477
 20
53.89118126408303
 11
27.07304667828479
 21
53.89118126408303
  0
LINE
  5
DF
100
AcDbEntity
  8
0
  6
ByLayer
 62
    0
370
   -1
100
AcDbLine
 10
27.07304667828479
 20
53.89118126408303
 11
27.07304667828479
 21
48.09118126408302
  0
LINE
  5
E0
100
AcDbEntity
  8
0
  6
ByLayer
 62
    0
370
   -1
100
AcDbLine
 10
27.07304667828479
 20
48.09118126408302
 11
26.27204667828477
 21
48.09118126408302
  0
LINE
  5
E1
100
AcDbEntity
  8
0
  6
ByLayer
 62
    0
370
   -1
100
AcDbLine
 10
26.27204667828477
 20
48.09118126408302
 11
26.27204667828477
 21
44.99058126408302
  0
LINE
  5
E2
100
AcDbEntity
  8
0
  6
ByLayer
 62
    0
370
   -1
100
AcDbLine
 10
26.27204667828477
 20
44.99058126408302
 11
27.07304667828479
 21
44.99058126408302
  0
LINE
  5
E3
100
AcDbEntity
  8
0
  6
ByLayer
 62
    0
370
   -1
100
AcDbLine
 10
27.07304667828479
 20
44.99058126408302
 11
27.07304667828479
 21
43.99148126408303
  0
LINE
  5
E4
100
AcDbEntity
  8
0
  6
ByLayer
 62
    0
370
   -1
100
AcDbLine
 10
27.07304667828479
 20
43.99148126408303
 11
41.07304667828478
 21
43.99148126408303
  0
LINE
  5
E5
100
AcDbEntity
  8
0
  6
ByLayer
 62
    0
370
   -1
100
AcDbLine
 10
41.07304667828478
 20
43.99148126408303
 11
41.07304667828478
 21
44.99058126408302
  0
LINE
  5
E6
100
AcDbEntity
  8
0
  6
ByLayer
 62
    0
370
   -1
100
AcDbLine
 10
41.07304667828478
 20
44.99058126408302
 11
41.87304667828477
 21
44.99058126408302
  0
LINE
  5
E7
100
AcDbEntity
  8
0
  6
ByLayer
 62
    0
370
   -1
100
AcDbLine
 10
41.87304667828477
 20
44.99058126408302
 11
41.87304667828477
 21
48.09118126408302
  0
LINE
  5
E8
100
AcDbEntity
  8
0
  6
ByLayer
 62
    0
370
   -1
100
AcDbLine
 10
41.87304667828477
 20
48.09118126408302
 11
41.07304667828478
 21
48.09118126408302
  0
LINE
  5
E9
100
AcDbEntity
  8
0
  6
ByLayer
 62
    0
370
   -1
100
AcDbLine
 10
41.07304667828478
 20
48.09118126408302
 11
41.07304667828478
 21
53.89118126408303
  0
LINE
  5
EA
100
AcDbEntity
  8
0
  6
ByLayer
 62
    0
370
   -1
100
AcDbLine
 10
41.07304667828478
 20
53.89118126408303
 11
41.87304667828477
 21
53.89118126408303
  0
LINE
  5
EB
100
AcDbEntity
  8
0
  6
ByLayer
 62
    0
370
   -1
100
AcDbLine
 10
41.87304667828477
 20
53.89118126408303
 11
41.87304667828477
 21
56.99028126408303
  0
LINE
  5
EC
100
AcDbEntity
  8
0
  6
ByLayer
 62
    0
370
   -1
100
AcDbLine
 10
41.87304667828477
 20
56.99028126408303
 11
41.07304667828478
 21
56.99028126408303
  0
LINE
  5
ED
100
AcDbEntity
  8
0
  6
ByLayer
 62
    0
370
   -1
100
AcDbLine
 10
41.07304667828478
 20
56.99028126408303
 11
41.07304667828478
 21
57.99078126408302
  0
LINE
  5
EE
100
AcDbEntity
  8
0
  6
ByLayer
 62
    0
370
   -1
100
AcDbLine
 10
41.07304667828478
 20
57.99078126408302
 11
27.07304667828479
 21
57.99078126408302
  0
LINE
  5
EF
100
AcDbEntity
  8
0
  6
ByLayer
 62
    0
370
   -1
100
AcDbLine
 10
46.12304667828477
 20
60.37208126408303
 11
46.12304667828477
 21
59.37158126408303
  0
LINE
  5
F0
100
AcDbEntity
  8
0
  6
ByLayer
 62
    0
370
   -1
100
AcDbLine
 10
46.12304667828477
 20
59.37158126408303
 11
45.32204667828478
 21
59.37158126408303
  0
LINE
  5
F1
100
AcDbEntity
  8
0
  6
ByLayer
 62
    0
370
   -1
100
AcDbLine
 10
45.32204667828478
 20
59.37158126408303
 11
45.32204667828478
 21
56.27238126408303
  0
LINE
  5
F2
100
AcDbEntity
  8
0
  6
ByLayer
 62
    0
370
   -1
100
AcDbLine
 10
45.32204667828478
 20
56.27238126408303
 11
46.12304667828477
 21
56.27238126408303
  0
LINE
  5
F3
100
AcDbEntity
  8
0
  6
ByLayer
 62
    0
370
   -1
100
AcDbLine
 10
46.12304667828477
 20
56.27238126408303
 11
46.12304667828477
 21
50.47238126408302
  0
LINE
  5
F4
100
AcDbEntity
  8
0
  6
ByLayer
 62
    0
370
   -1
100
AcDbLine
 10
46.12304667828477
 20
50.47238126408302
 11
45.32204667828478
 21
50.47238126408302
  0
LINE
  5
F5
100
AcDbEntity
  8
0
  6
ByLayer
 62
    0
370
   -1
100
AcDbLine
 10
45.32204667828478
 20
50.47238126408302
 11
45.32204667828478
 21
47.37178126408302
  0
LINE
  5
F6
100
AcDbEntity
  8
0
  6
ByLayer
 62
    0
370
   -1
100
AcDbLine
 10
45.32204667828478
 20
47.37178126408302
 11
46.12304667828477
 21
47.37178126408302
  0
LINE
  5
F7
100
AcDbEntity
  8
0
  6
ByLayer
 62
    0
370
   -1
100
AcDbLine
 10
46.12304667828477
 20
47.37178126408302
 11
46.12304667828477
 21
46.37138126408303
  0
LINE
  5
F8
100
AcDbEntity
  8
0
  6
ByLayer
 62
    0
370
   -1
100
AcDbLine
 10
46.12304667828477
 20
46.37138126408303
 11
60.12304667828477
 21
46.37138126408303
  0
LINE
  5
F9
100
AcDbEntity
  8
0
  6
ByLayer
 62
    0
370
   -1
100
AcDbLine
 10
60.12304667828477
 20
46.37138126408303
 11
60.12304667828477
 21
47.37178126408302
  0
LINE
  5
FA
100
AcDbEntity
  8
0
  6
ByLayer
 62
    0
370
   -1
100
AcDbLine
 10
60.12304667828477
 20
47.37178126408302
 11
60.92304667828478
 21
47.37178126408302
  0
LINE
  5
FB
100
AcDbEntity
  8
0
  6
ByLayer
 62
    0
370
   -1
100
AcDbLine
 10
60.92304667828478
 20
47.37178126408302
 11
60.92304667828478
 21
50.47238126408302
  0
LINE
  5
FC
100
AcDbEntity
  8
0
  6
ByLayer
 62
    0
370
   -1
100
AcDbLine
 10
60.92304667828478
 20
50.47238126408302
 11
60.12304667828477
 21
50.47238126408302
  0
LINE
  5
FD
100
AcDbEntity
  8
0
  6
ByLayer
 62
    0
370
   -1
100
AcDbLine
 10
60.12304667828477
 20
50.47238126408302
 11
60.12304667828477
 21
56.27238126408303
  0
LINE
  5
FE
100
AcDbEntity
  8
0
  6
ByLayer
 62
    0
370
   -1
100
AcDbLine
 10
60.12304667828477
 20
56.27238126408303
 11
60.92304667828478
 21
56.27238126408303
  0
LINE
  5
FF
100
AcDbEntity
  8
0
  6
ByLayer
 62
    0
370
   -1
100
AcDbLine
 10
60.92304667828478
 20
56.27238126408303
 11
60.92304667828478
 21
59.37158126408303
  0
LINE
  5
100
100
AcDbEntity
  8
0
  6
ByLayer
 62
    0
370
   -1
100
AcDbLine
 10
60.92304667828478
 20
59.37158126408303
 11
60.12304667828477
 21
59.37158126408303
  0
LINE
  5
101
100
AcDbEntity
  8
0
  6
ByLayer
 62
    0
370
   -1
100
AcDbLine
 10
60.12304667828477
 20
59.37158126408303
 11
60.12304667828477
 21
60.37208126408303
  0
LINE
  5
102
100
AcDbEntity
  8
0
  6
ByLayer
 62
    0
370
   -1
100
AcDbLine
 10
60.12304667828477
 20
60.37208126408303
 11
46.12304667828477
 21
60.37208126408303
  0
LINE
  5
103
100
AcDbEntity
  8
0
  6
ByLayer
 62
    0
370
   -1
100
AcDbLine
 10
84.22304667828479
 20
60.37208126408303
 11
84.22304667828479
 21
59.37158126408303
  0
LINE
  5
104
100
AcDbEntity
  8
0
  6
ByLayer
 62
    0
370
   -1
100
AcDbLine
 10
84.22304667828479
 20
59.37158126408303
 11
83.42204667828474
 21
59.37158126408303
  0
LINE
  5
105
100
AcDbEntity
  8
0
  6
ByLayer
 62
    0
370
   -1
100
AcDbLine
 10
83.42204667828474
 20
59.37158126408303
 11
83.42204667828474
 21
56.27238126408303
  0
LINE
  5
106
100
AcDbEntity
  8
0
  6
ByLayer
 62
    0
370
   -1
100
AcDbLine
 10
83.42204667828474
 20
56.27238126408303
 11
84.22304667828479
 21
56.27238126408303
  0
LINE
  5
107
100
AcDbEntity
  8
0
  6
ByLayer
 62
    0
370
   -1
100
AcDbLine
 10
84.22304667828479
 20
56.27238126408303
 11
84.22304667828479
 21
50.47238126408302
  0
LINE
  5
108
100
AcDbEntity
  8
0
  6
ByLayer
 62
    0
370
   -1
100
AcDbLine
 10
84.22304667828479
 20
50.47238126408302
 11
83.42204667828474
 21
50.47238126408302
  0
LINE
  5
109
100
AcDbEntity
  8
0
  6
ByLayer
 62
    0
370
   -1
100
AcDbLine
 10
83.42204667828474
 20
50.47238126408302
 11
83.42204667828474
 21
47.37178126408302
  0
LINE
  5
10A
100
AcDbEntity
  8
0
  6
ByLayer
 62
    0
370
   -1
100
AcDbLine
 10
83.42204667828474
 20
47.37178126408302
 11
84.22304667828479
 21
47.37178126408302
  0
LINE
  5
10B
100
AcDbEntity
  8
0
  6
ByLayer
 62
    0
370
   -1
100
AcDbLine
 10
84.22304667828479
 20
47.37178126408302
 11
84.22304667828479
 21
46.37138126408303
  0
LINE
  5
10C
100
AcDbEntity
  8
0
  6
ByLayer
 62
    0
370
   -1
100
AcDbLine
 10
84.22304667828479
 20
46.37138126408303
 11
98.22304667828479
 21
46.37138126408303
  0
LINE
  5
10D
100
AcDbEntity
  8
0
  6
ByLayer
 62
    0
370
   -1
100
AcDbLine
 10
98.22304667828479
 20
46.37138126408303
 11
98.22304667828479
 21
47.37178126408302
  0
LINE
  5
10E
100
AcDbEntity
  8
0
  6
ByLayer
 62
    0
370
   -1
100
AcDbLine
 10
98.22304667828479
 20
47.37178126408302
 11
99.0230466782848
 21
47.37178126408302
  0
LINE
  5
10F
100
AcDbEntity
  8
0
  6
ByLayer
 62
    0
370
   -1
100
AcDbLine
 10
99.0230466782848
 20
47.37178126408302
 11
99.0230466782848
 21
50.47238126408302
  0
LINE
  5
110
100
AcDbEntity
  8
0
  6
ByLayer
 62
    0
370
   -1
100
AcDbLine
 10
99.0230466782848
 20
50.47238126408302
 11
98.22304667828479
 21
50.47238126408302
  0
LINE
  5
111
100
AcDbEntity
  8
0
  6
ByLayer
 62
    0
370
   -1
100
AcDbLine
 10
98.22304667828479
 20
50.47238126408302
 11
98.22304667828479
 21
56.27238126408303
  0
LINE
  5
112
100
AcDbEntity
  8
0
  6
ByLayer
 62
    0
370
   -1
100
AcDbLine
 10
98.22304667828479
 20
56.27238126408303
 11
99.0230466782848
 21
56.27238126408303
  0
LINE
  5
113
100
AcDbEntity
  8
0
  6
ByLayer
 62
    0
370
   -1
100
AcDbLine
 10
99.0230466782848
 20
56.27238126408303
 11
99.0230466782848
 21
59.37158126408303
  0
LINE
  5
114
100
AcDbEntity
  8
0
  6
ByLayer
 62
    0
370
   -1
100
AcDbLine
 10
99.0230466782848
 20
59.37158126408303
 11
98.22304667828479
 21
59.37158126408303
  0
LINE
  5
115
100
AcDbEntity
  8
0
  6
ByLayer
 62
    0
370
   -1
100
AcDbLine
 10
98.22304667828479
 20
59.37158126408303
 11
98.22304667828479
 21
60.37208126408303
  0
LINE
  5
116
100
AcDbEntity
  8
0
  6
ByLayer
 62
    0
370
   -1
100
AcDbLine
 10
98.22304667828479
 20
60.37208126408303
 11
84.22304667828479
 21
60.37208126408303
  0
LINE
  5
117
100
AcDbEntity
  8
0
  6
ByLayer
 62
    0
370
   -1
100
AcDbLine
 10
65.17304667828478
 20
62.75328126408303
 11
65.17304667828478
 21
61.75278126408302
  0
LINE
  5
118
100
AcDbEntity
  8
0
  6
ByLayer
 62
    0
370
   -1
100
AcDbLine
 10
65.17304667828478
 20
61.75278126408302
 11
64.37204667828478
 21
61.75278126408302
  0
LINE
  5
119
100
AcDbEntity
  8
0
  6
ByLayer
 62
    0
370
   -1
100
AcDbLine
 10
64.37204667828478
 20
61.75278126408302
 11
64.37204667828478
 21
58.65228126408303
  0
LINE
  5
11A
100
AcDbEntity
  8
0
  6
ByLayer
 62
    0
370
   -1
100
AcDbLine
 10
64.37204667828478
 20
58.65228126408303
 11
65.17304667828478
 21
58.65228126408303
  0
LINE
  5
11B
100
AcDbEntity
  8
0
  6
ByLayer
 62
    0
370
   -1
100
AcDbLine
 10
65.17304667828478
 20
58.65228126408303
 11
65.17304667828478
 21
52.85368126408303
  0
LINE
  5
11C
100
AcDbEntity
  8
0
  6
ByLayer
 62
    0
370
   -1
100
AcDbLine
 10
65.17304667828478
 20
52.85368126408303
 11
64.37204667828478
 21
52.85368126408303
  0
LINE
  5
11D
100
AcDbEntity
  8
0
  6
ByLayer
 62
    0
370
   -1
100
AcDbLine
 10
64.37204667828478
 20
52.85368126408303
 11
64.37204667828478
 21
49.75308126408303
  0
LINE
  5
11E
100
AcDbEntity
  8
0
  6
ByLayer
 62
    0
370
   -1
100
AcDbLine
 10
64.37204667828478
 20
49.75308126408303
 11
65.17304667828478
 21
49.75308126408303
  0
LINE
  5
11F
100
AcDbEntity
  8
0
  6
ByLayer
 62
    0
370
   -1
100
AcDbLine
 10
65.17304667828478
 20
49.75308126408303
 11
65.17304667828478
 21
48.75258126408303
  0
LINE
  5
120
100
AcDbEntity
  8
0
  6
ByLayer
 62
    0
370
   -1
100
AcDbLine
 10
65.17304667828478
 20
48.75258126408303
 11
79.17304667828478
 21
48.75258126408303
  0
LINE
  5
121
100
AcDbEntity
  8
0
  6
ByLayer
 62
    0
370
   -1
100
AcDbLine
 10
79.17304667828478
 20
48.75258126408303
 11
79.17304667828478
 21
49.75308126408303
  0
LINE
  5
122
100
AcDbEntity
  8
0
  6
ByLayer
 62
    0
370
   -1
100
AcDbLine
 10
79.17304667828478
 20
49.75308126408303
 11
79.97304667828479
 21
49.75308126408303
  0
LINE
  5
123
100
AcDbEntity
  8
0
  6
ByLayer
 62
    0
370
   -1
100
AcDbLine
 10
79.97304667828479
 20
49.75308126408303
 11
79.97304667828479
 21
52.85368126408303
  0
LINE
  5
124
100
AcDbEntity
  8
0
  6
ByLayer
 62
    0
370
   -1
100
AcDbLine
 10
79.97304667828479
 20
52.85368126408303
 11
79.17304667828478
 21
52.85368126408303
  0
LINE
  5
125
100
AcDbEntity
  8
0
  6
ByLayer
 62
    0
370
   -1
100
AcDbLine
 10
79.17304667828478
 20
52.85368126408303
 11
79.17304667828478
 21
58.65228126408303
  0
LINE
  5
126
100
AcDbEntity
  8
0
  6
ByLayer
 62
    0
370
   -1
100
AcDbLine
 10
79.17304667828478
 20
58.65228126408303
 11
79.97304667828479
 21
58.65228126408303
  0
LINE
  5
127
100
AcDbEntity
  8
0
  6
ByLayer
 62
    0
370
   -1
100
AcDbLine
 10
79.97304667828479
 20
58.65228126408303
 11
79.97304667828479
 21
61.75278126408302
  0
LINE
  5
128
100
AcDbEntity
  8
0
  6
ByLayer
 62
    0
370
   -1
100
AcDbLine
 10
79.97304667828479
 20
61.75278126408302
 11
79.17304667828478
 21
61.75278126408302
  0
LINE
  5
129
100
AcDbEntity
  8
0
  6
ByLayer
 62
    0
370
   -1
100
AcDbLine
 10
79.17304667828478
 20
61.75278126408302
 11
79.17304667828478
 21
62.75328126408303
  0
LINE
  5
12A
100
AcDbEntity
  8
0
  6
ByLayer
 62
    0
370
   -1
100
AcDbLine
 10
79.17304667828478
 20
62.75328126408303
 11
65.17304667828478
 21
62.75328126408303
  0
LINE
  5
12B
100
AcDbEntity
  8
0
  6
ByLayer
 62
    0
370
   -1
100
AcDbLine
 10
103.2730466782848
 20
74.65958126408303
 11
103.2730466782848
 21
73.66048126408303
  0
LINE
  5
12C
100
AcDbEntity
  8
0
  6
ByLayer
 62
    0
370
   -1
100
AcDbLine
 10
103.2730466782848
 20
73.66048126408303
 11
102.4720466782848
 21
73.66048126408303
  0
LINE
  5
12D
100
AcDbEntity
  8
0
  6
ByLayer
 62
    0
370
   -1
100
AcDbLine
 10
102.4720466782848
 20
73.66048126408303
 11
102.4720466782848
 21
70.55988126408303
  0
LINE
  5
12E
100
AcDbEntity
  8
0
  6
ByLayer
 62
    0
370
   -1
100
AcDbLine
 10
102.4720466782848
 20
70.55988126408303
 11
103.2730466782848
 21
70.55988126408303
  0
LINE
  5
12F
100
AcDbEntity
  8
0
  6
ByLayer
 62
    0
370
   -1
100
AcDbLine
 10
103.2730466782848
 20
70.55988126408303
 11
103.2730466782848
 21
64.75988126408303
  0
LINE
  5
130
100
AcDbEntity
  8
0
  6
ByLayer
 62
    0
370
   -1
100
AcDbLine
 10
103.2730466782848
 20
64.75988126408303
 11
102.4720466782848
 21
64.75988126408303
  0
LINE
  5
131
100
AcDbEntity
  8
0
  6
ByLayer
 62
    0
370
   -1
100
AcDbLine
 10
102.4720466782848
 20
64.75988126408303
 11
102.4720466782848
 21
61.65928126408303
  0
LINE
  5
132
100
AcDbEntity
  8
0
  6
ByLayer
 62
    0
370
   -1
100
AcDbLine
 10
102.4720466782848
 20
61.65928126408303
 11
103.2730466782848
 21
61.65928126408303
  0
LINE
  5
133
100
AcDbEntity
  8
0
  6
ByLayer
 62
    0
370
   -1
100
AcDbLine
 10
103.2730466782848
 20
61.65928126408303
 11
103.2730466782848
 21
60.66028126408303
  0
LINE
  5
134
100
AcDbEntity
  8
0
  6
ByLayer
 62
    0
370
   -1
100
AcDbLine
 10
103.2730466782848
 20
60.66028126408303
 11
117.2730466782848
 21
60.66028126408303
  0
LINE
  5
135
100
AcDbEntity
  8
0
  6
ByLayer
 62
    0
370
   -1
100
AcDbLine
 10
117.2730466782848
 20
60.66028126408303
 11
117.2730466782848
 21
61.65928126408303
  0
LINE
  5
136
100
AcDbEntity
  8
0
  6
ByLayer
 62
    0
370
   -1
100
AcDbLine
 10
117.2730466782848
 20
61.65928126408303
 11
118.0730466782847
 21
61.65928126408303
  0
LINE
  5
137
100
AcDbEntity
  8
0
  6
ByLayer
 62
    0
370
   -1
100
AcDbLine
 10
118.0730466782847
 20
61.65928126408303
 11
118.0730466782847
 21
64.75988126408303
  0
LINE
  5
138
100
AcDbEntity
  8
0
  6
ByLayer
 62
    0
370
   -1
100
AcDbLine
 10
118.0730466782847
 20
64.75988126408303
 11
117.2730466782848
 21
64.75988126408303
  0
LINE
  5
139
100
AcDbEntity
  8
0
  6
ByLayer
 62
    0
370
   -1
100
AcDbLine
 10
117.2730466782848
 20
64.75988126408303
 11
117.2730466782848
 21
70.55988126408303
  0
LINE
  5
13A
100
AcDbEntity
  8
0
  6
ByLayer
 62
    0
370
   -1
100
AcDbLine
 10
117.2730466782848
 20
70.55988126408303
 11
118.0730466782847
 21
70.55988126408303
  0
LINE
  5
13B
100
AcDbEntity
  8
0
  6
ByLayer
 62
    0
370
   -1
100
AcDbLine
 10
118.0730466782847
 20
70.55988126408303
 11
118.0730466782847
 21
73.66048126408303
  0
LINE
  5
13C
100
AcDbEntity
  8
0
  6
ByLayer
 62
    0
370
   -1
100
AcDbLine
 10
118.0730466782847
 20
73.66048126408303
 11
117.2730466782848
 21
73.66048126408303
  0
LINE
  5
13D
100
AcDbEntity
  8
0
  6
ByLayer
 62
    0
370
   -1
100
AcDbLine
 10
117.2730466782848
 20
73.66048126408303
 11
117.2730466782848
 21
74.65958126408303
  0
LINE
  5
13E
100
AcDbEntity
  8
0
  6
ByLayer
 62
    0
370
   -1
100
AcDbLine
 10
117.2730466782848
 20
74.65958126408303
 11
103.2730466782848
 21
74.65958126408303
  0
LINE
  5
13F
100
AcDbEntity
  8
0
  6
ByLayer
 62
    0
370
   -1
100
AcDbLine
 10
122.3230466782847
 20
74.65958126408303
 11
122.3230466782847
 21
73.66048126408303
  0
LINE
  5
140
100
AcDbEntity
  8
0
  6
ByLayer
 62
    0
370
   -1
100
AcDbLine
 10
122.3230466782847
 20
73.66048126408303
 11
121.5220466782847
 21
73.66048126408303
  0
LINE
  5
141
100
AcDbEntity
  8
0
  6
ByLayer
 62
    0
370
   -1
100
AcDbLine
 10
121.5220466782847
 20
73.66048126408303
 11
121.5220466782847
 21
70.55988126408303
  0
LINE
  5
142
100
AcDbEntity
  8
0
  6
ByLayer
 62
    0
370
   -1
100
AcDbLine
 10
121.5220466782847
 20
70.55988126408303
 11
122.3230466782847
 21
70.55988126408303
  0
LINE
  5
143
100
AcDbEntity
  8
0
  6
ByLayer
 62
    0
370
   -1
100
AcDbLine
 10
122.3230466782847
 20
70.55988126408303
 11
122.3230466782847
 21
64.75988126408303
  0
LINE
  5
144
100
AcDbEntity
  8
0
  6
ByLayer
 62
    0
370
   -1
100
AcDbLine
 10
122.3230466782847
 20
64.75988126408303
 11
121.5220466782847
 21
64.75988126408303
  0
LINE
  5
145
100
AcDbEntity
  8
0
  6
ByLayer
 62
    0
370
   -1
100
AcDbLine
 10
121.5220466782847
 20
64.75988126408303
 11
121.5220466782847
 21
61.65928126408303
  0
LINE
  5
146
100
AcDbEntity
  8
0
  6
ByLayer
 62
    0
370
   -1
100
AcDbLine
 10
121.5220466782847
 20
61.65928126408303
 11
122.3230466782847
 21
61.65928126408303
  0
LINE
  5
147
100
AcDbEntity
  8
0
  6
ByLayer
 62
    0
370
   -1
100
AcDbLine
 10
122.3230466782847
 20
61.65928126408303
 11
122.3230466782847
 21
60.66028126408303
  0
LINE
  5
148
100
AcDbEntity
  8
0
  6
ByLayer
 62
    0
370
   -1
100
AcDbLine
 10
122.3230466782847
 20
60.66028126408303
 11
136.3230466782847
 21
60.66028126408303
  0
LINE
  5
149
100
AcDbEntity
  8
0
  6
ByLayer
 62
    0
370
   -1
100
AcDbLine
 10
136.3230466782847
 20
60.66028126408303
 11
136.3230466782847
 21
61.65928126408303
  0
LINE
  5
14A
100
AcDbEntity
  8
0
  6
ByLayer
 62
    0
370
   -1
100
AcDbLine
 10
136.3230466782847
 20
61.65928126408303
 11
137.1230466782847
 21
61.65928126408303
  0
LINE
  5
14B
100
AcDbEntity
  8
0
  6
ByLayer
 62
    0
370
   -1
100
AcDbLine
 10
137.1230466782847
 20
61.65928126408303
 11
137.1230466782847
 21
64.75988126408303
  0
LINE
  5
14C
100
AcDbEntity
  8
0
  6
ByLayer
 62
    0
370
   -1
100
AcDbLine
 10
137.1230466782847
 20
64.75988126408303
 11
136.3230466782847
 21
64.75988126408303
  0
LINE
  5
14D
100
AcDbEntity
  8
0
  6
ByLayer
 62
    0
370
   -1
100
AcDbLine
 10
136.3230466782847
 20
64.75988126408303
 11
136.3230466782847
 21
70.55988126408303
  0
LINE
  5
14E
100
AcDbEntity
  8
0
  6
ByLayer
 62
    0
370
   -1
100
AcDbLine
 10
136.3230466782847
 20
70.55988126408303
 11
137.1230466782847
 21
70.55988126408303
  0
LINE
  5
14F
100
AcDbEntity
  8
0
  6
ByLayer
 62
    0
370
   -1
100
AcDbLine
 10
137.1230466782847
 20
70.55988126408303
 11
137.1230466782847
 21
73.66048126408303
  0
LINE
  5
150
100
AcDbEntity
  8
0
  6
ByLayer
 62
    0
370
   -1
100
AcDbLine
 10
137.1230466782847
 20
73.66048126408303
 11
136.3230466782847
 21
73.66048126408303
  0
LINE
  5
151
100
AcDbEntity
  8
0
  6
ByLayer
 62
    0
370
   -1
100
AcDbLine
 10
136.3230466782847
 20
73.66048126408303
 11
136.3230466782847
 21
74.65958126408303
  0
LINE
  5
152
100
AcDbEntity
  8
0
  6
ByLayer
 62
    0
370
   -1
100
AcDbLine
 10
136.3230466782847
 20
74.65958126408303
 11
122.3230466782847
 21
74.65958126408303
  0
LINE
  5
153
100
AcDbEntity
  8
0
  6
ByLayer
 62
    0
370
   -1
100
AcDbLine
 10
27.07304667828479
 20
77.04078126408302
 11
27.07304667828479
 21
76.04028126408303
  0
LINE
  5
154
100
AcDbEntity
  8
0
  6
ByLayer
 62
    0
370
   -1
100
AcDbLine
 10
27.07304667828479
 20
76.04028126408303
 11
26.27204667828477
 21
76.04028126408303
  0
LINE
  5
155
100
AcDbEntity
  8
0
  6
ByLayer
 62
    0
370
   -1
100
AcDbLine
 10
26.27204667828477
 20
76.04028126408303
 11
26.27204667828477
 21
72.94118126408303
  0
LINE
  5
156
100
AcDbEntity
  8
0
  6
ByLayer
 62
    0
370
   -1
100
AcDbLine
 10
26.27204667828477
 20
72.94118126408303
 11
27.07304667828479
 21
72.94118126408303
  0
LINE
  5
157
100
AcDbEntity
  8
0
  6
ByLayer
 62
    0
370
   -1
100
AcDbLine
 10
27.07304667828479
 20
72.94118126408303
 11
27.07304667828479
 21
67.14118126408303
  0
LINE
  5
158
100
AcDbEntity
  8
0
  6
ByLayer
 62
    0
370
   -1
100
AcDbLine
 10
27.07304667828479
 20
67.14118126408303
 11
26.27204667828477
 21
67.14118126408303
  0
LINE
  5
159
100
AcDbEntity
  8
0
  6
ByLayer
 62
    0
370
   -1
100
AcDbLine
 10
26.27204667828477
 20
67.14118126408303
 11
26.27204667828477
 21
64.04058126408303
  0
LINE
  5
15A
100
AcDbEntity
  8
0
  6
ByLayer
 62
    0
370
   -1
100
AcDbLine
 10
26.27204667828477
 20
64.04058126408303
 11
27.07304667828479
 21
64.04058126408303
  0
LINE
  5
15B
100
AcDbEntity
  8
0
  6
ByLayer
 62
    0
370
   -1
100
AcDbLine
 10
27.07304667828479
 20
64.04058126408303
 11
27.07304667828479
 21
63.04148126408303
  0
LINE
  5
15C
100
AcDbEntity
  8
0
  6
ByLayer
 62
    0
370
   -1
100
AcDbLine
 10
27.07304667828479
 20
63.04148126408303
 11
41.07304667828478
 21
63.04148126408303
  0
LINE
  5
15D
100
AcDbEntity
  8
0
  6
ByLayer
 62
    0
370
   -1
100
AcDbLine
 10
41.07304667828478
 20
63.04148126408303
 11
41.07304667828478
 21
64.04058126408303
  0
LINE
  5
15E
100
AcDbEntity
  8
0
  6
ByLayer
 62
    0
370
   -1
100
AcDbLine
 10
41.07304667828478
 20
64.04058126408303
 11
41.87304667828477
 21
64.04058126408303
  0
LINE
  5
15F
100
AcDbEntity
  8
0
  6
ByLayer
 62
    0
370
   -1
100
AcDbLine
 10
41.87304667828477
 20
64.04058126408303
 11
41.87304667828477
 21
67.14118126408303
  0
LINE
  5
160
100
AcDbEntity
  8
0
  6
ByLayer
 62
    0
370
   -1
100
AcDbLine
 10
41.87304667828477
 20
67.14118126408303
 11
41.07304667828478
 21
67.14118126408303
  0
LINE
  5
161
100
AcDbEntity
  8
0
  6
ByLayer
 62
    0
370
   -1
100
AcDbLine
 10
41.07304667828478
 20
67.14118126408303
 11
41.07304667828478
 21
72.94118126408303
  0
LINE
  5
162
100
AcDbEntity
  8
0
  6
ByLayer
 62
    0
370
   -1
100
AcDbLine
 10
41.07304667828478
 20
72.94118126408303
 11
41.87304667828477
 21
72.94118126408303
  0
LINE
  5
163
100
AcDbEntity
  8
0
  6
ByLayer
 62
    0
370
   -1
100
AcDbLine
 10
41.87304667828477
 20
72.94118126408303
 11
41.87304667828477
 21
76.04028126408303
  0
LINE
  5
164
100
AcDbEntity
  8
0
  6
ByLayer
 62
    0
370
   -1
100
AcDbLine
 10
41.87304667828477
 20
76.04028126408303
 11
41.07304667828478
 21
76.04028126408303
  0
LINE
  5
165
100
AcDbEntity
  8
0
  6
ByLayer
 62
    0
370
   -1
100
AcDbLine
 10
41.07304667828478
 20
76.04028126408303
 11
41.07304667828478
 21
77.04078126408302
  0
LINE
  5
166
100
AcDbEntity
  8
0
  6
ByLayer
 62
    0
370
   -1
100
AcDbLine
 10
41.07304667828478
 20
77.04078126408302
 11
27.07304667828479
 21
77.04078126408302
  0
LINE
  5
167
100
AcDbEntity
  8
0
  6
ByLayer
 62
    0
370
   -1
100
AcDbLine
 10
46.12304667828477
 20
79.42208126408303
 11
46.12304667828477
 21
78.42158126408303
  0
LINE
  5
168
100
AcDbEntity
  8
0
  6
ByLayer
 62
    0
370
   -1
100
AcDbLine
 10
46.12304667828477
 20
78.42158126408303
 11
45.32204667828478
 21
78.42158126408303
  0
LINE
  5
169
100
AcDbEntity
  8
0
  6
ByLayer
 62
    0
370
   -1
100
AcDbLine
 10
45.32204667828478
 20
78.42158126408303
 11
45.32204667828478
 21
75.32238126408303
  0
LINE
  5
16A
100
AcDbEntity
  8
0
  6
ByLayer
 62
    0
370
   -1
100
AcDbLine
 10
45.32204667828478
 20
75.32238126408303
 11
46.12304667828477
 21
75.32238126408303
  0
LINE
  5
16B
100
AcDbEntity
  8
0
  6
ByLayer
 62
    0
370
   -1
100
AcDbLine
 10
46.12304667828477
 20
75.32238126408303
 11
46.12304667828477
 21
69.52238126408302
  0
LINE
  5
16C
100
AcDbEntity
  8
0
  6
ByLayer
 62
    0
370
   -1
100
AcDbLine
 10
46.12304667828477
 20
69.52238126408302
 11
45.32204667828478
 21
69.52238126408302
  0
LINE
  5
16D
100
AcDbEntity
  8
0
  6
ByLayer
 62
    0
370
   -1
100
AcDbLine
 10
45.32204667828478
 20
69.52238126408302
 11
45.32204667828478
 21
66.42178126408302
  0
LINE
  5
16E
100
AcDbEntity
  8
0
  6
ByLayer
 62
    0
370
   -1
100
AcDbLine
 10
45.32204667828478
 20
66.42178126408302
 11
46.12304667828477
 21
66.42178126408302
  0
LINE
  5
16F
100
AcDbEntity
  8
0
  6
ByLayer
 62
    0
370
   -1
100
AcDbLine
 10
46.12304667828477
 20
66.42178126408302
 11
46.12304667828477
 21
65.42138126408302
  0
LINE
  5
170
100
AcDbEntity
  8
0
  6
ByLayer
 62
    0
370
   -1
100
AcDbLine
 10
46.12304667828477
 20
65.42138126408302
 11
60.12304667828477
 21
65.42138126408302
  0
LINE
  5
171
100
AcDbEntity
  8
0
  6
ByLayer
 62
    0
370
   -1
100
AcDbLine
 10
60.12304667828477
 20
65.42138126408302
 11
60.12304667828477
 21
66.42178126408302
  0
LINE
  5
172
100
AcDbEntity
  8
0
  6
ByLayer
 62
    0
370
   -1
100
AcDbLine
 10
60.12304667828477
 20
66.42178126408302
 11
60.92304667828478
 21
66.42178126408302
  0
LINE
  5
173
100
AcDbEntity
  8
0
  6
ByLayer
 62
    0
370
   -1
100
AcDbLine
 10
60.92304667828478
 20
66.42178126408302
 11
60.92304667828478
 21
69.52238126408302
  0
LINE
  5
174
100
AcDbEntity
  8
0
  6
ByLayer
 62
    0
370
   -1
100
AcDbLine
 10
60.92304667828478
 20
69.52238126408302
 11
60.12304667828477
 21
69.52238126408302
  0
LINE
  5
175
100
AcDbEntity
  8
0
  6
ByLayer
 62
    0
370
   -1
100
AcDbLine
 10
60.12304667828477
 20
69.52238126408302
 11
60.12304667828477
 21
75.32238126408303
  0
LINE
  5
176
100
AcDbEntity
  8
0
  6
ByLayer
 62
    0
370
   -1
100
AcDbLine
 10
60.12304667828477
 20
75.32238126408303
 11
60.92304667828478
 21
75.32238126408303
  0
LINE
  5
177
100
AcDbEntity
  8
0
  6
ByLayer
 62
    0
370
   -1
100
AcDbLine
 10
60.92304667828478
 20
75.32238126408303
 11
60.92304667828478
 21
78.42158126408303
  0
LINE
  5
178
100
AcDbEntity
  8
0
  6
ByLayer
 62
    0
370
   -1
100
AcDbLine
 10
60.92304667828478
 20
78.42158126408303
 11
60.12304667828477
 21
78.42158126408303
  0
LINE
  5
179
100
AcDbEntity
  8
0
  6
ByLayer
 62
    0
370
   -1
100
AcDbLine
 10
60.12304667828477
 20
78.42158126408303
 11
60.12304667828477
 21
79.42208126408303
  0
LINE
  5
17A
100
AcDbEntity
  8
0
  6
ByLayer
 62
    0
370
   -1
100
AcDbLine
 10
60.12304667828477
 20
79.42208126408303
 11
46.12304667828477
 21
79.42208126408303
  0
LINE
  5
17B
100
AcDbEntity
  8
0
  6
ByLayer
 62
    0
370
   -1
100
AcDbLine
 10
84.22304667828479
 20
79.42208126408303
 11
84.22304667828479
 21
78.42158126408303
  0
LINE
  5
17C
100
AcDbEntity
  8
0
  6
ByLayer
 62
    0
370
   -1
100
AcDbLine
 10
84.22304667828479
 20
78.42158126408303
 11
83.42204667828474
 21
78.42158126408303
  0
LINE
  5
17D
100
AcDbEntity
  8
0
  6
ByLayer
 62
    0
370
   -1
100
AcDbLine
 10
83.42204667828474
 20
78.42158126408303
 11
83.42204667828474
 21
75.32238126408303
  0
LINE
  5
17E
100
AcDbEntity
  8
0
  6
ByLayer
 62
    0
370
   -1
100
AcDbLine
 10
83.42204667828474
 20
75.32238126408303
 11
84.22304667828479
 21
75.32238126408303
  0
LINE
  5
17F
100
AcDbEntity
  8
0
  6
ByLayer
 62
    0
370
   -1
100
AcDbLine
 10
84.22304667828479
 20
75.32238126408303
 11
84.22304667828479
 21
69.52238126408302
  0
LINE
  5
180
100
AcDbEntity
  8
0
  6
ByLayer
 62
    0
370
   -1
100
AcDbLine
 10
84.22304667828479
 20
69.52238126408302
 11
83.42204667828474
 21
69.52238126408302
  0
LINE
  5
181
100
AcDbEntity
  8
0
  6
ByLayer
 62
    0
370
   -1
100
AcDbLine
 10
83.42204667828474
 20
69.52238126408302
 11
83.42204667828474
 21
66.42178126408302
  0
LINE
  5
182
100
AcDbEntity
  8
0
  6
ByLayer
 62
    0
370
   -1
100
AcDbLine
 10
83.42204667828474
 20
66.42178126408302
 11
84.22304667828479
 21
66.42178126408302
  0
LINE
  5
183
100
AcDbEntity
  8
0
  6
ByLayer
 62
    0
370
   -1
100
AcDbLine
 10
84.22304667828479
 20
66.42178126408302
 11
84.22304667828479
 21
65.42138126408302
  0
LINE
  5
184
100
AcDbEntity
  8
0
  6
ByLayer
 62
    0
370
   -1
100
AcDbLine
 10
84.22304667828479
 20
65.42138126408302
 11
98.22304667828479
 21
65.42138126408302
  0
LINE
  5
185
100
AcDbEntity
  8
0
  6
ByLayer
 62
    0
370
   -1
100
AcDbLine
 10
98.22304667828479
 20
65.42138126408302
 11
98.22304667828479
 21
66.42178126408302
  0
LINE
  5
186
100
AcDbEntity
  8
0
  6
ByLayer
 62
    0
370
   -1
100
AcDbLine
 10
98.22304667828479
 20
66.42178126408302
 11
99.0230466782848
 21
66.42178126408302
  0
LINE
  5
187
100
AcDbEntity
  8
0
  6
ByLayer
 62
    0
370
   -1
100
AcDbLine
 10
99.0230466782848
 20
66.42178126408302
 11
99.0230466782848
 21
69.52238126408302
  0
LINE
  5
188
100
AcDbEntity
  8
0
  6
ByLayer
 62
    0
370
   -1
100
AcDbLine
 10
99.0230466782848
 20
69.52238126408302
 11
98.22304667828479
 21
69.52238126408302
  0
LINE
  5
189
100
AcDbEntity
  8
0
  6
ByLayer
 62
    0
370
   -1
100
AcDbLine
 10
98.22304667828479
 20
69.52238126408302
 11
98.22304667828479
 21
75.32238126408303
  0
LINE
  5
18A
100
AcDbEntity
  8
0
  6
ByLayer
 62
    0
370
   -1
100
AcDbLine
 10
98.22304667828479
 20
75.32238126408303
 11
99.0230466782848
 21
75.32238126408303
  0
LINE
  5
18B
100
AcDbEntity
  8
0
  6
ByLayer
 62
    0
370
   -1
100
AcDbLine
 10
99.0230466782848
 20
75.32238126408303
 11
99.0230466782848
 21
78.42158126408303
  0
LINE
  5
18C
100
AcDbEntity
  8
0
  6
ByLayer
 62
    0
370
   -1
100
AcDbLine
 10
99.0230466782848
 20
78.42158126408303
 11
98.22304667828479
 21
78.42158126408303
  0
LINE
  5
18D
100
AcDbEntity
  8
0
  6
ByLayer
 62
    0
370
   -1
100
AcDbLine
 10
98.22304667828479
 20
78.42158126408303
 11
98.22304667828479
 21
79.42208126408303
  0
LINE
  5
18E
100
AcDbEntity
  8
0
  6
ByLayer
 62
    0
370
   -1
100
AcDbLine
 10
98.22304667828479
 20
79.42208126408303
 11
84.22304667828479
 21
79.42208126408303
  0
LINE
  5
18F
100
AcDbEntity
  8
0
  6
ByLayer
 62
    0
370
   -1
100
AcDbLine
 10
65.17304667828478
 20
81.80328126408303
 11
65.17304667828478
 21
80.80278126408302
  0
LINE
  5
190
100
AcDbEntity
  8
0
  6
ByLayer
 62
    0
370
   -1
100
AcDbLine
 10
65.17304667828478
 20
80.80278126408302
 11
64.37204667828478
 21
80.80278126408302
  0
LINE
  5
191
100
AcDbEntity
  8
0
  6
ByLayer
 62
    0
370
   -1
100
AcDbLine
 10
64.37204667828478
 20
80.80278126408302
 11
64.37204667828478
 21
77.70228126408303
  0
LINE
  5
192
100
AcDbEntity
  8
0
  6
ByLayer
 62
    0
370
   -1
100
AcDbLine
 10
64.37204667828478
 20
77.70228126408303
 11
65.17304667828478
 21
77.70228126408303
  0
LINE
  5
193
100
AcDbEntity
  8
0
  6
ByLayer
 62
    0
370
   -1
100
AcDbLine
 10
65.17304667828478
 20
77.70228126408303
 11
65.17304667828478
 21
71.90368126408303
  0
LINE
  5
194
100
AcDbEntity
  8
0
  6
ByLayer
 62
    0
370
   -1
100
AcDbLine
 10
65.17304667828478
 20
71.90368126408303
 11
64.37204667828478
 21
71.90368126408303
  0
LINE
  5
195
100
AcDbEntity
  8
0
  6
ByLayer
 62
    0
370
   -1
100
AcDbLine
 10
64.37204667828478
 20
71.90368126408303
 11
64.37204667828478
 21
68.80308126408303
  0
LINE
  5
196
100
AcDbEntity
  8
0
  6
ByLayer
 62
    0
370
   -1
100
AcDbLine
 10
64.37204667828478
 20
68.80308126408303
 11
65.17304667828478
 21
68.80308126408303
  0
LINE
  5
197
100
AcDbEntity
  8
0
  6
ByLayer
 62
    0
370
   -1
100
AcDbLine
 10
65.17304667828478
 20
68.80308126408303
 11
65.17304667828478
 21
67.80258126408303
  0
LINE
  5
198
100
AcDbEntity
  8
0
  6
ByLayer
 62
    0
370
   -1
100
AcDbLine
 10
65.17304667828478
 20
67.80258126408303
 11
79.17304667828478
 21
67.80258126408303
  0
LINE
  5
199
100
AcDbEntity
  8
0
  6
ByLayer
 62
    0
370
   -1
100
AcDbLine
 10
79.17304667828478
 20
67.80258126408303
 11
79.17304667828478
 21
68.80308126408303
  0
LINE
  5
19A
100
AcDbEntity
  8
0
  6
ByLayer
 62
    0
370
   -1
100
AcDbLine
 10
79.17304667828478
 20
68.80308126408303
 11
79.97304667828479
 21
68.80308126408303
  0
LINE
  5
19B
100
AcDbEntity
  8
0
  6
ByLayer
 62
    0
370
   -1
100
AcDbLine
 10
79.97304667828479
 20
68.80308126408303
 11
79.97304667828479
 21
71.90368126408303
  0
LINE
  5
19C
100
AcDbEntity
  8
0
  6
ByLayer
 62
    0
370
   -1
100
AcDbLine
 10
79.97304667828479
 20
71.90368126408303
 11
79.17304667828478
 21
71.90368126408303
  0
LINE
  5
19D
100
AcDbEntity
  8
0
  6
ByLayer
 62
    0
370
   -1
100
AcDbLine
 10
79.17304667828478
 20
71.90368126408303
 11
79.17304667828478
 21
77.70228126408303
  0
LINE
  5
19E
100
AcDbEntity
  8
0
  6
ByLayer
 62
    0
370
   -1
100
AcDbLine
 10
79.17304667828478
 20
77.70228126408303
 11
79.97304667828479
 21
77.70228126408303
  0
LINE
  5
19F
100
AcDbEntity
  8
0
  6
ByLayer
 62
    0
370
   -1
100
AcDbLine
 10
79.97304667828479
 20
77.70228126408303
 11
79.97304667828479
 21
80.80278126408302
  0
LINE
  5
1A0
100
AcDbEntity
  8
0
  6
ByLayer
 62
    0
370
   -1
100
AcDbLine
 10
79.97304667828479
 20
80.80278126408302
 11
79.17304667828478
 21
80.80278126408302
  0
LINE
  5
1A1
100
AcDbEntity
  8
0
  6
ByLayer
 62
    0
370
   -1
100
AcDbLine
 10
79.17304667828478
 20
80.80278126408302
 11
79.17304667828478
 21
81.80328126408303
  0
LINE
  5
1A2
100
AcDbEntity
  8
0
  6
ByLayer
 62
    0
370
   -1
100
AcDbLine
 10
79.17304667828478
 20
81.80328126408303
 11
65.17304667828478
 21
81.80328126408303
  0
LINE
  5
1A3
100
AcDbEntity
  8
0
  6
ByLayer
 62
    0
370
   -1
100
AcDbLine
 10
103.2730466782848
 20
93.70958126408303
 11
103.2730466782848
 21
92.71048126408303
  0
LINE
  5
1A4
100
AcDbEntity
  8
0
  6
ByLayer
 62
    0
370
   -1
100
AcDbLine
 10
103.2730466782848
 20
92.71048126408303
 11
102.4720466782848
 21
92.71048126408303
  0
LINE
  5
1A5
100
AcDbEntity
  8
0
  6
ByLayer
 62
    0
370
   -1
100
AcDbLine
 10
102.4720466782848
 20
92.71048126408303
 11
102.4720466782848
 21
89.60988126408303
  0
LINE
  5
1A6
100
AcDbEntity
  8
0
  6
ByLayer
 62
    0
370
   -1
100
AcDbLine
 10
102.4720466782848
 20
89.60988126408303
 11
103.2730466782848
 21
89.60988126408303
  0
LINE
  5
1A7
100
AcDbEntity
  8
0
  6
ByLayer
 62
    0
370
   -1
100
AcDbLine
 10
103.2730466782848
 20
89.60988126408303
 11
103.2730466782848
 21
83.80988126408303
  0
LINE
  5
1A8
100
AcDbEntity
  8
0
  6
ByLayer
 62
    0
370
   -1
100
AcDbLine
 10
103.2730466782848
 20
83.80988126408303
 11
102.4720466782848
 21
83.80988126408303
  0
LINE
  5
1A9
100
AcDbEntity
  8
0
  6
ByLayer
 62
    0
370
   -1
100
AcDbLine
 10
102.4720466782848
 20
83.80988126408303
 11
102.4720466782848
 21
80.70928126408303
  0
LINE
  5
1AA
100
AcDbEntity
  8
0
  6
ByLayer
 62
    0
370
   -1
100
AcDbLine
 10
102.4720466782848
 20
80.70928126408303
 11
103.2730466782848
 21
80.70928126408303
  0
LINE
  5
1AB
100
AcDbEntity
  8
0
  6
ByLayer
 62
    0
370
   -1
100
AcDbLine
 10
103.2730466782848
 20
80.70928126408303
 11
103.2730466782848
 21
79.71028126408302
  0
LINE
  5
1AC
100
AcDbEntity
  8
0
  6
ByLayer
 62
    0
370
   -1
100
AcDbLine
 10
103.2730466782848
 20
79.71028126408302
 11
117.2730466782848
 21
79.71028126408302
  0
LINE
  5
1AD
100
AcDbEntity
  8
0
  6
ByLayer
 62
    0
370
   -1
100
AcDbLine
 10
117.2730466782848
 20
79.71028126408302
 11
117.2730466782848
 21
80.70928126408303
  0
LINE
  5
1AE
100
AcDbEntity
  8
0
  6
ByLayer
 62
    0
370
   -1
100
AcDbLine
 10
117.2730466782848
 20
80.70928126408303
 11
118.0730466782847
 21
80.70928126408303
  0
LINE
  5
1AF
100
AcDbEntity
  8
0
  6
ByLayer
 62
    0
370
   -1
100
AcDbLine
 10
118.0730466782847
 20
80.70928126408303
 11
118.0730466782847
 21
83.80988126408303
  0
LINE
  5
1B0
100
AcDbEntity
  8
0
  6
ByLayer
 62
    0
370
   -1
100
AcDbLine
 10
118.0730466782847
 20
83.80988126408303
 11
117.2730466782848
 21
83.80988126408303
  0
LINE
  5
1B1
100
AcDbEntity
  8
0
  6
ByLayer
 62
    0
370
   -1
100
AcDbLine
 10
117.2730466782848
 20
83.80988126408303
 11
117.2730466782848
 21
89.60988126408303
  0
LINE
  5
1B2
100
AcDbEntity
  8
0
  6
ByLayer
 62
    0
370
   -1
100
AcDbLine
 10
117.2730466782848
 20
89.60988126408303
 11
118.0730466782847
 21
89.60988126408303
  0
LINE
  5
1B3
100
AcDbEntity
  8
0
  6
ByLayer
 62
    0
370
   -1
100
AcDbLine
 10
118.0730466782847
 20
89.60988126408303
 11
118.0730466782847
 21
92.71048126408303
  0
LINE
  5
1B4
100
AcDbEntity
  8
0
  6
ByLayer
 62
    0
370
   -1
100
AcDbLine
 10
118.0730466782847
 20
92.71048126408303
 11
117.2730466782848
 21
92.71048126408303
  0
LINE
  5
1B5
100
AcDbEntity
  8
0
  6
ByLayer
 62
    0
370
   -1
100
AcDbLine
 10
117.2730466782848
 20
92.71048126408303
 11
117.2730466782848
 21
93.70958126408303
  0
LINE
  5
1B6
100
AcDbEntity
  8
0
  6
ByLayer
 62
    0
370
   -1
100
AcDbLine
 10
117.2730466782848
 20
93.70958126408303
 11
103.2730466782848
 21
93.70958126408303
  0
LINE
  5
1B7
100
AcDbEntity
  8
0
  6
ByLayer
 62
    0
370
   -1
100
AcDbLine
 10
122.3230466782847
 20
93.70958126408303
 11
122.3230466782847
 21
92.71048126408303
  0
LINE
  5
1B8
100
AcDbEntity
  8
0
  6
ByLayer
 62
    0
370
   -1
100
AcDbLine
 10
122.3230466782847
 20
92.71048126408303
 11
121.5220466782847
 21
92.71048126408303
  0
LINE
  5
1B9
100
AcDbEntity
  8
0
  6
ByLayer
 62
    0
370
   -1
100
AcDbLine
 10
121.5220466782847
 20
92.71048126408303
 11
121.5220466782847
 21
89.60988126408303
  0
LINE
  5
1BA
100
AcDbEntity
  8
0
  6
ByLayer
 62
    0
370
   -1
100
AcDbLine
 10
121.5220466782847
 20
89.60988126408303
 11
122.3230466782847
 21
89.60988126408303
  0
LINE
  5
1BB
100
AcDbEntity
  8
0
  6
ByLayer
 62
    0
370
   -1
100
AcDbLine
 10
122.3230466782847
 20
89.60988126408303
 11
122.3230466782847
 21
83.80988126408303
  0
LINE
  5
1BC
100
AcDbEntity
  8
0
  6
ByLayer
 62
    0
370
   -1
100
AcDbLine
 10
122.3230466782847
 20
83.80988126408303
 11
121.5220466782847
 21
83.80988126408303
  0
LINE
  5
1BD
100
AcDbEntity
  8
0
  6
ByLayer
 62
    0
370
   -1
100
AcDbLine
 10
121.5220466782847
 20
83.80988126408303
 11
121.5220466782847
 21
80.70928126408303
  0
LINE
  5
1BE
100
AcDbEntity
  8
0
  6
ByLayer
 62
    0
370
   -1
100
AcDbLine
 10
121.5220466782847
 20
80.70928126408303
 11
122.3230466782847
 21
80.70928126408303
  0
LINE
  5
1BF
100
AcDbEntity
  8
0
  6
ByLayer
 62
    0
370
   -1
100
AcDbLine
 10
122.3230466782847
 20
80.70928126408303
 11
122.3230466782847
 21
79.71028126408302
  0
LINE
  5
1C0
100
AcDbEntity
  8
0
  6
ByLayer
 62
    0
370
   -1
100
AcDbLine
 10
122.3230466782847
 20
79.71028126408302
 11
136.3230466782847
 21
79.71028126408302
  0
LINE
  5
1C1
100
AcDbEntity
  8
0
  6
ByLayer
 62
    0
370
   -1
100
AcDbLine
 10
136.3230466782847
 20
79.71028126408302
 11
136.3230466782847
 21
80.70928126408303
  0
LINE
  5
1C2
100
AcDbEntity
  8
0
  6
ByLayer
 62
    0
370
   -1
100
AcDbLine
 10
136.3230466782847
 20
80.70928126408303
 11
137.1230466782847
 21
80.70928126408303
  0
LINE
  5
1C3
100
AcDbEntity
  8
0
  6
ByLayer
 62
    0
370
   -1
100
AcDbLine
 10
137.1230466782847
 20
80.70928126408303
 11
137.1230466782847
 21
83.80988126408303
  0
LINE
  5
1C4
100
AcDbEntity
  8
0
  6
ByLayer
 62
    0
370
   -1
100
AcDbLine
 10
137.1230466782847
 20
83.80988126408303
 11
136.3230466782847
 21
83.80988126408303
  0
LINE
  5
1C5
100
AcDbEntity
  8
0
  6
ByLayer
 62
    0
370
   -1
100
AcDbLine
 10
136.3230466782847
 20
83.80988126408303
 11
136.3230466782847
 21
89.60988126408303
  0
LINE
  5
1C6
100
AcDbEntity
  8
0
  6
ByLayer
 62
    0
370
   -1
100
AcDbLine
 10
136.3230466782847
 20
89.60988126408303
 11
137.1230466782847
 21
89.60988126408303
  0
LINE
  5
1C7
100
AcDbEntity
  8
0
  6
ByLayer
 62
    0
370
   -1
100
AcDbLine
 10
137.1230466782847
 20
89.60988126408303
 11
137.1230466782847
 21
92.71048126408303
  0
LINE
  5
1C8
100
AcDbEntity
  8
0
  6
ByLayer
 62
    0
370
   -1
100
AcDbLine
 10
137.1230466782847
 20
92.71048126408303
 11
136.3230466782847
 21
92.71048126408303
  0
LINE
  5
1C9
100
AcDbEntity
  8
0
  6
ByLayer
 62
    0
370
   -1
100
AcDbLine
 10
136.3230466782847
 20
92.71048126408303
 11
136.3230466782847
 21
93.70958126408303
  0
LINE
  5
1CA
100
AcDbEntity
  8
0
  6
ByLayer
 62
    0
370
   -1
100
AcDbLine
 10
136.3230466782847
 20
93.70958126408303
 11
122.3230466782847
 21
93.70958126408303
  0
LINE
  5
1CB
100
AcDbEntity
  8
0
  6
ByLayer
 62
    0
370
   -1
100
AcDbLine
 10
27.07304667828479
 20
96.09078126408303
 11
27.07304667828479
 21
95.09028126408303
  0
LINE
  5
1CC
100
AcDbEntity
  8
0
  6
ByLayer
 62
    0
370
   -1
100
AcDbLine
 10
27.07304667828479
 20
95.09028126408303
 11
26.27204667828477
 21
95.09028126408303
  0
LINE
  5
1CD
100
AcDbEntity
  8
0
  6
ByLayer
 62
    0
370
   -1
100
AcDbLine
 10
26.27204667828477
 20
95.09028126408303
 11
26.27204667828477
 21
91.99118126408302
  0
LINE
  5
1CE
100
AcDbEntity
  8
0
  6
ByLayer
 62
    0
370
   -1
100
AcDbLine
 10
26.27204667828477
 20
91.99118126408302
 11
27.07304667828479
 21
91.99118126408302
  0
LINE
  5
1CF
100
AcDbEntity
  8
0
  6
ByLayer
 62
    0
370
   -1
100
AcDbLine
 10
27.07304667828479
 20
91.99118126408302
 11
27.07304667828479
 21
86.19118126408303
  0
LINE
  5
1D0
100
AcDbEntity
  8
0
  6
ByLayer
 62
    0
370
   -1
100
AcDbLine
 10
27.07304667828479
 20
86.19118126408303
 11
26.27204667828477
 21
86.19118126408303
  0
LINE
  5
1D1
100
AcDbEntity
  8
0
  6
ByLayer
 62
    0
370
   -1
100
AcDbLine
 10
26.27204667828477
 20
86.19118126408303
 11
26.27204667828477
 21
83.09058126408303
  0
LINE
  5
1D2
100
AcDbEntity
  8
0
  6
ByLayer
 62
    0
370
   -1
100
AcDbLine
 10
26.27204667828477
 20
83.09058126408303
 11
27.07304667828479
 21
83.09058126408303
  0
LINE
  5
1D3
100
AcDbEntity
  8
0
  6
ByLayer
 62
    0
370
   -1
100
AcDbLine
 10
27.07304667828479
 20
83.09058126408303
 11
27.07304667828479
 21
82.09148126408303
  0
LINE
  5
1D4
100
AcDbEntity
  8
0
  6
ByLayer
 62
    0
370
   -1
100
AcDbLine
 10
27.07304667828479
 20
82.09148126408303
 11
41.07304667828478
 21
82.09148126408303
  0
LINE
  5
1D5
100
AcDbEntity
  8
0
  6
ByLayer
 62
    0
370
   -1
100
AcDbLine
 10
41.07304667828478
 20
82.09148126408303
 11
41.07304667828478
 21
83.09058126408303
  0
LINE
  5
1D6
100
AcDbEntity
  8
0
  6
ByLayer
 62
    0
370
   -1
100
AcDbLine
 10
41.07304667828478
 20
83.09058126408303
 11
41.87304667828477
 21
83.09058126408303
  0
LINE
  5
1D7
100
AcDbEntity
  8
0
  6
ByLayer
 62
    0
370
   -1
100
AcDbLine
 10
41.87304667828477
 20
83.09058126408303
 11
41.87304667828477
 21
86.19118126408303
  0
LINE
  5
1D8
100
AcDbEntity
  8
0
  6
ByLayer
 62
    0
370
   -1
100
AcDbLine
 10
41.87304667828477
 20
86.19118126408303
 11
41.07304667828478
 21
86.19118126408303
  0
LINE
  5
1D9
100
AcDbEntity
  8
0
  6
ByLayer
 62
    0
370
   -1
100
AcDbLine
 10
41.07304667828478
 20
86.19118126408303
 11
41.07304667828478
 21
91.99118126408302
  0
LINE
  5
1DA
100
AcDbEntity
  8
0
  6
ByLayer
 62
    0
370
   -1
100
AcDbLine
 10
41.07304667828478
 20
91.99118126408302
 11
41.87304667828477
 21
91.99118126408302
  0
LINE
  5
1DB
100
AcDbEntity
  8
0
  6
ByLayer
 62
    0
370
   -1
100
AcDbLine
 10
41.87304667828477
 20
91.99118126408302
 11
41.87304667828477
 21
95.09028126408303
  0
LINE
  5
1DC
100
AcDbEntity
  8
0
  6
ByLayer
 62
    0
370
   -1
100
AcDbLine
 10
41.87304667828477
 20
95.09028126408303
 11
41.07304667828478
 21
95.09028126408303
  0
LINE
  5
1DD
100
AcDbEntity
  8
0
  6
ByLayer
 62
    0
370
   -1
100
AcDbLine
 10
41.07304667828478
 20
95.09028126408303
 11
41.07304667828478
 21
96.09078126408303
  0
LINE
  5
1DE
100
AcDbEntity
  8
0
  6
ByLayer
 62
    0
370
   -1
100
AcDbLine
 10
41.07304667828478
 20
96.09078126408303
 11
27.07304667828479
 21
96.09078126408303
  0
LINE
  5
1DF
100
AcDbEntity
  8
0
  6
ByLayer
 62
    0
370
   -1
100
AcDbLine
 10
46.12304667828477
 20
98.47208126408303
 11
46.12304667828477
 21
97.47158126408303
  0
LINE
  5
1E0
100
AcDbEntity
  8
0
  6
ByLayer
 62
    0
370
   -1
100
AcDbLine
 10
46.12304667828477
 20
97.47158126408303
 11
45.32204667828478
 21
97.47158126408303
  0
LINE
  5
1E1
100
AcDbEntity
  8
0
  6
ByLayer
 62
    0
370
   -1
100
AcDbLine
 10
45.32204667828478
 20
97.47158126408303
 11
45.32204667828478
 21
94.37238126408303
  0
LINE
  5
1E2
100
AcDbEntity
  8
0
  6
ByLayer
 62
    0
370
   -1
100
AcDbLine
 10
45.32204667828478
 20
94.37238126408303
 11
46.12304667828477
 21
94.37238126408303
  0
LINE
  5
1E3
100
AcDbEntity
  8
0
  6
ByLayer
 62
    0
370
   -1
100
AcDbLine
 10
46.12304667828477
 20
94.37238126408303
 11
46.12304667828477
 21
88.57238126408303
  0
LINE
  5
1E4
100
AcDbEntity
  8
0
  6
ByLayer
 62
    0
370
   -1
100
AcDbLine
 10
46.12304667828477
 20
88.57238126408303
 11
45.32204667828478
 21
88.57238126408303
  0
LINE
  5
1E5
100
AcDbEntity
  8
0
  6
ByLayer
 62
    0
370
   -1
100
AcDbLine
 10
45.32204667828478
 20
88.57238126408303
 11
45.32204667828478
 21
85.47178126408303
  0
LINE
  5
1E6
100
AcDbEntity
  8
0
  6
ByLayer
 62
    0
370
   -1
100
AcDbLine
 10
45.32204667828478
 20
85.47178126408303
 11
46.12304667828477
 21
85.47178126408303
  0
LINE
  5
1E7
100
AcDbEntity
  8
0
  6
ByLayer
 62
    0
370
   -1
100
AcDbLine
 10
46.12304667828477
 20
85.47178126408303
 11
46.12304667828477
 21
84.47138126408304
  0
LINE
  5
1E8
100
AcDbEntity
  8
0
  6
ByLayer
 62
    0
370
   -1
100
AcDbLine
 10
46.12304667828477
 20
84.47138126408304
 11
60.12304667828477
 21
84.47138126408304
  0
LINE
  5
1E9
100
AcDbEntity
  8
0
  6
ByLayer
 62
    0
370
   -1
100
AcDbLine
 10
60.12304667828477
 20
84.47138126408304
 11
60.12304667828477
 21
85.47178126408303
  0
LINE
  5
1EA
100
AcDbEntity
  8
0
  6
ByLayer
 62
    0
370
   -1
100
AcDbLine
 10
60.12304667828477
 20
85.47178126408303
 11
60.92304667828478
 21
85.47178126408303
  0
LINE
  5
1EB
100
AcDbEntity
  8
0
  6
ByLayer
 62
    0
370
   -1
100
AcDbLine
 10
60.92304667828478
 20
85.47178126408303
 11
60.92304667828478
 21
88.57238126408303
  0
LINE
  5
1EC
100
AcDbEntity
  8
0
  6
ByLayer
 62
    0
370
   -1
100
AcDbLine
 10
60.92304667828478
 20
88.57238126408303
 11
60.12304667828477
 21
88.57238126408303
  0
LINE
  5
1ED
100
AcDbEntity
  8
0
  6
ByLayer
 62
    0
370
   -1
100
AcDbLine
 10
60.12304667828477
 20
88.57238126408303
 11
60.12304667828477
 21
94.37238126408303
  0
LINE
  5
1EE
100
AcDbEntity
  8
0
  6
ByLayer
 62
    0
370
   -1
100
AcDbLine
 10
60.12304667828477
 20
94.37238126408303
 11
60.92304667828478
 21
94.37238126408303
  0
LINE
  5
1EF
100
AcDbEntity
  8
0
  6
ByLayer
 62
    0
370
   -1
100
AcDbLine
 10
60.92304667828478
 20
94.37238126408303
 11
60.92304667828478
 21
97.47158126408303
  0
LINE
  5
1F0
100
AcDbEntity
  8
0
  6
ByLayer
 62
    0
370
   -1
100
AcDbLine
 10
60.92304667828478
 20
97.47158126408303
 11
60.12304667828477
 21
97.47158126408303
  0
LINE
  5
1F1
100
AcDbEntity
  8
0
  6
ByLayer
 62
    0
370
   -1
100
AcDbLine
 10
60.12304667828477
 20
97.47158126408303
 11
60.12304667828477
 21
98.47208126408303
  0
LINE
  5
1F2
100
AcDbEntity
  8
0
  6
ByLayer
 62
    0
370
   -1
100
AcDbLine
 10
60.12304667828477
 20
98.47208126408303
 11
46.12304667828477
 21
98.47208126408303
  0
LINE
  5
1F3
100
AcDbEntity
  8
0
  6
ByLayer
 62
    0
370
   -1
100
AcDbLine
 10
84.22304667828479
 20
98.47208126408303
 11
84.22304667828479
 21
97.47158126408303
  0
LINE
  5
1F4
100
AcDbEntity
  8
0
  6
ByLayer
 62
    0
370
   -1
100
AcDbLine
 10
84.22304667828479
 20
97.47158126408303
 11
83.42204667828474
 21
97.47158126408303
  0
LINE
  5
1F5
100
AcDbEntity
  8
0
  6
ByLayer
 62
    0
370
   -1
100
AcDbLine
 10
83.42204667828474
 20
97.47158126408303
 11
83.42204667828474
 21
94.37238126408303
  0
LINE
  5
1F6
100
AcDbEntity
  8
0
  6
ByLayer
 62
    0
370
   -1
100
AcDbLine
 10
83.42204667828474
 20
94.37238126408303
 11
84.22304667828479
 21
94.37238126408303
  0
LINE
  5
1F7
100
AcDbEntity
  8
0
  6
ByLayer
 62
    0
370
   -1
100
AcDbLine
 10
84.22304667828479
 20
94.37238126408303
 11
84.22304667828479
 21
88.57238126408303
  0
LINE
  5
1F8
100
AcDbEntity
  8
0
  6
ByLayer
 62
    0
370
   -1
100
AcDbLine
 10
84.22304667828479
 20
88.57238126408303
 11
83.42204667828474
 21
88.57238126408303
  0
LINE
  5
1F9
100
AcDbEntity
  8
0
  6
ByLayer
 62
    0
370
   -1
100
AcDbLine
 10
83.42204667828474
 20
88.57238126408303
 11
83.42204667828474
 21
85.47178126408303
  0
LINE
  5
1FA
100
AcDbEntity
  8
0
  6
ByLayer
 62
    0
370
   -1
100
AcDbLine
 10
83.42204667828474
 20
85.47178126408303
 11
84.22304667828479
 21
85.47178126408303
  0
LINE
  5
1FB
100
AcDbEntity
  8
0
  6
ByLayer
 62
    0
370
   -1
100
AcDbLine
 10
84.22304667828479
 20
85.47178126408303
 11
84.22304667828479
 21
84.47138126408304
  0
LINE
  5
1FC
100
AcDbEntity
  8
0
  6
ByLayer
 62
    0
370
   -1
100
AcDbLine
 10
84.22304667828479
 20
84.47138126408304
 11
98.22304667828479
 21
84.47138126408304
  0
LINE
  5
1FD
100
AcDbEntity
  8
0
  6
ByLayer
 62
    0
370
   -1
100
AcDbLine
 10
98.22304667828479
 20
84.47138126408304
 11
98.22304667828479
 21
85.47178126408303
  0
LINE
  5
1FE
100
AcDbEntity
  8
0
  6
ByLayer
 62
    0
370
   -1
100
AcDbLine
 10
98.22304667828479
 20
85.47178126408303
 11
99.0230466782848
 21
85.47178126408303
  0
LINE
  5
1FF
100
AcDbEntity
  8
0
  6
ByLayer
 62
    0
370
   -1
100
AcDbLine
 10
99.0230466782848
 20
85.47178126408303
 11
99.0230466782848
 21
88.57238126408303
  0
LINE
  5
200
100
AcDbEntity
  8
0
  6
ByLayer
 62
    0
370
   -1
100
AcDbLine
 10
99.0230466782848
 20
88.57238126408303
 11
98.22304667828479
 21
88.57238126408303
  0
LINE
  5
201
100
AcDbEntity
  8
0
  6
ByLayer
 62
    0
370
   -1
100
AcDbLine
 10
98.22304667828479
 20
88.57238126408303
 11
98.22304667828479
 21
94.37238126408303
  0
LINE
  5
202
100
AcDbEntity
  8
0
  6
ByLayer
 62
    0
370
   -1
100
AcDbLine
 10
98.22304667828479
 20
94.37238126408303
 11
99.0230466782848
 21
94.37238126408303
  0
LINE
  5
203
100
AcDbEntity
  8
0
  6
ByLayer
 62
    0
370
   -1
100
AcDbLine
 10
99.0230466782848
 20
94.37238126408303
 11
99.0230466782848
 21
97.47158126408303
  0
LINE
  5
204
100
AcDbEntity
  8
0
  6
ByLayer
 62
    0
370
   -1
100
AcDbLine
 10
99.0230466782848
 20
97.47158126408303
 11
98.22304667828479
 21
97.47158126408303
  0
LINE
  5
205
100
AcDbEntity
  8
0
  6
ByLayer
 62
    0
370
   -1
100
AcDbLine
 10
98.22304667828479
 20
97.47158126408303
 11
98.22304667828479
 21
98.47208126408303
  0
LINE
  5
206
100
AcDbEntity
  8
0
  6
ByLayer
 62
    0
370
   -1
100
AcDbLine
 10
98.22304667828479
 20
98.47208126408303
 11
84.22304667828479
 21
98.47208126408303
  0
LINE
  5
207
100
AcDbEntity
  8
0
  6
ByLayer
 62
    0
370
   -1
100
AcDbLine
 10
65.17304667828478
 20
100.853381264083
 11
65.17304667828478
 21
99.85238126408304
  0
LINE
  5
208
100
AcDbEntity
  8
0
  6
ByLayer
 62
    0
370
   -1
100
AcDbLine
 10
65.17304667828478
 20
99.85238126408304
 11
64.37204667828478
 21
99.85238126408304
  0
LINE
  5
209
100
AcDbEntity
  8
0
  6
ByLayer
 62
    0
370
   -1
100
AcDbLine
 10
64.37204667828478
 20
99.85238126408304
 11
64.37204667828478
 21
96.75228126408302
  0
LINE
  5
20A
100
AcDbEntity
  8
0
  6
ByLayer
 62
    0
370
   -1
100
AcDbLine
 10
64.37204667828478
 20
96.75228126408302
 11
65.17304667828478
 21
96.75228126408302
  0
LINE
  5
20B
100
AcDbEntity
  8
0
  6
ByLayer
 62
    0
370
   -1
100
AcDbLine
 10
65.17304667828478
 20
96.75228126408302
 11
65.17304667828478
 21
90.95368126408303
  0
LINE
  5
20C
100
AcDbEntity
  8
0
  6
ByLayer
 62
    0
370
   -1
100
AcDbLine
 10
65.17304667828478
 20
90.95368126408303
 11
64.37204667828478
 21
90.95368126408303
  0
LINE
  5
20D
100
AcDbEntity
  8
0
  6
ByLayer
 62
    0
370
   -1
100
AcDbLine
 10
64.37204667828478
 20
90.95368126408303
 11
64.37204667828478
 21
87.85308126408303
  0
LINE
  5
20E
100
AcDbEntity
  8
0
  6
ByLayer
 62
    0
370
   -1
100
AcDbLine
 10
64.37204667828478
 20
87.85308126408303
 11
65.17304667828478
 21
87.85308126408303
  0
LINE
  5
20F
100
AcDbEntity
  8
0
  6
ByLayer
 62
    0
370
   -1
100
AcDbLine
 10
65.17304667828478
 20
87.85308126408303
 11
65.17304667828478
 21
86.85258126408303
  0
LINE
  5
210
100
AcDbEntity
  8
0
  6
ByLayer
 62
    0
370
   -1
100
AcDbLine
 10
65.17304667828478
 20
86.85258126408303
 11
79.17304667828478
 21
86.85258126408303
  0
LINE
  5
211
100
AcDbEntity
  8
0
  6
ByLayer
 62
    0
370
   -1
100
AcDbLine
 10
79.17304667828478
 20
86.85258126408303
 11
79.17304667828478
 21
87.85308126408303
  0
LINE
  5
212
100
AcDbEntity
  8
0
  6
ByLayer
 62
    0
370
   -1
100
AcDbLine
 10
79.17304667828478
 20
87.85308126408303
 11
79.97304667828479
 21
87.85308126408303
  0
LINE
  5
213
100
AcDbEntity
  8
0
  6
ByLayer
 62
    0
370
   -1
100
AcDbLine
 10
79.97304667828479
 20
87.85308126408303
 11
79.97304667828479
 21
90.95368126408303
  0
LINE
  5
214
100
AcDbEntity
  8
0
  6
ByLayer
 62
    0
370
   -1
100
AcDbLine
 10
79.97304667828479
 20
90.95368126408303
 11
79.17304667828478
 21
90.95368126408303
  0
LINE
  5
215
100
AcDbEntity
  8
0
  6
ByLayer
 62
    0
370
   -1
100
AcDbLine
 10
79.17304667828478
 20
90.95368126408303
 11
79.17304667828478
 21
96.75228126408302
  0
LINE
  5
216
100
AcDbEntity
  8
0
  6
ByLayer
 62
    0
370
   -1
100
AcDbLine
 10
79.17304667828478
 20
96.75228126408302
 11
79.97304667828479
 21
96.75228126408302
  0
LINE
  5
217
100
AcDbEntity
  8
0
  6
ByLayer
 62
    0
370
   -1
100
AcDbLine
 10
79.97304667828479
 20
96.75228126408302
 11
79.97304667828479
 21
99.85238126408304
  0
LINE
  5
218
100
AcDbEntity
  8
0
  6
ByLayer
 62
    0
370
   -1
100
AcDbLine
 10
79.97304667828479
 20
99.85238126408304
 11
79.17304667828478
 21
99.85238126408304
  0
LINE
  5
219
100
AcDbEntity
  8
0
  6
ByLayer
 62
    0
370
   -1
100
AcDbLine
 10
79.17304667828478
 20
99.85238126408304
 11
79.17304667828478
 21
100.853381264083
  0
LINE
  5
21A
100
AcDbEntity
  8
0
  6
ByLayer
 62
    0
370
   -1
100
AcDbLine
 10
79.17304667828478
 20
100.853381264083
 11
65.17304667828478
 21
100.853381264083
  0
CIRCLE
  5
21B
100
AcDbEntity
  8
case-and-holes
  6
ByLayer
 62
  256
370
   -1
100
AcDbCircle
 10
119.6440867316068
 20
39.33823085144272
 40
1
  0
CIRCLE
  5
21C
100
AcDbEntity
  8
case-and-holes
  6
ByLayer
 62
  256
370
   -1
100
AcDbCircle
 10
120.109627925115
 20
76.81429692885263
 40
1
  0
CIRCLE
  5
21D
100
AcDbEntity
  8
case-and-holes
  6
ByLayer
 62
  256
370
   -1
100
AcDbCircle
 10
81.70247946068872
 20
83.5646442347215
 40
1
  0
CIRCLE
  5
21E
100
AcDbEntity
  8
case-and-holes
  6
ByLayer
 62
  256
370
   -1
100
AcDbCircle
 10
61.91697873659031
 20
44.22641338327878
 40
1
  0
LINE
  5
21F
100
AcDbEntity
  8
case-and-holes
  6
ByLayer
 62
  256
370
   -1
100
AcDbLine
 10
19.89676562195696
 20
10.8214584844652
 11
30.98157184601495
 21
20.57560737400575
  0
LINE
  5
220
100
AcDbEntity
  8
case-and-holes
  6
ByLayer
 62
  256
370
   -1
100
AcDbLine
 10
31.81582125619159
 20
20.80968693506495
 11
39.74077672332833
 21
19.41237249065625
  0
LINE
  5
221
100
AcDbEntity
  8
case-and-holes
  6
ByLayer
 62
  256
370
   -1
100
AcDbLine
 10
41.65027925612463
 20
24.49447596055052
 11
40.89930418840706
 21
20.22398701401565
  0
LINE
  5
222
100
AcDbEntity
  8
case-and-holes
  6
ByLayer
 62
  256
370
   -1
100
AcDbLine
 10
42.63516686246128
 20
25.32128126408304
 11
99.4720466782848
 21
25.32128126408302
  0
LINE
  5
223
100
AcDbEntity
  8
case-and-holes
  6
ByLayer
 62
  256
370
   -1
100
AcDbLine
 10
100.4720466782848
 20
24.32128126408302
 11
100.4720466782848
 21
21.56018126408303
  0
LINE
  5
224
100
AcDbEntity
  8
case-and-holes
  6
ByLayer
 62
  256
370
   -1
100
AcDbLine
 10
101.4720466782848
 20
20.56018126408303
 11
138.1230466782847
 21
20.56018126408303
  0
LINE
  5
225
100
AcDbEntity
  8
case-and-holes
  6
ByLayer
 62
  256
370
   -1
100
AcDbLine
 10
139.1230466782847
 20
21.56018126408303
 11
139.1230466782847
 21
94.70958126408303
  0
LINE
  5
226
100
AcDbEntity
  8
case-and-holes
  6
ByLayer
 62
  256
370
   -1
100
AcDbLine
 10
14.43305882499643
 20
6.013633385034865
 11
19.89676562195696
 21
10.8214584844652
  0
ARC
  5
227
100
AcDbEntity
  8
case-and-holes
  6
ByLayer
 62
  256
370
   -1
100
AcDbCircle
 10
31.6421813974495
 20
19.82487771523807
 40
1
100
AcDbArc
 50
80.00048399185231
 51
131.3463772297216
  0
ARC
  5
228
100
AcDbEntity
  8
case-and-holes
  6
ByLayer
 62
  256
370
   -1
100
AcDbCircle
 10
39.91441658207042
 20
20.39718171048313
 40
1
100
AcDbArc
 50
260.0004839918525
 51
350.026382311594
  0
ARC
  5
229
100
AcDbEntity
  8
case-and-holes
  6
ByLayer
 62
  256
370
   -1
100
AcDbCircle
 10
42.63516686246128
 20
24.32128126408304
 40
1
100
AcDbArc
 50
90
 51
170.0263823115939
  0
ARC
  5
22A
100
AcDbEntity
  8
case-and-holes
  6
ByLayer
 62
  256
370
   -1
100
AcDbCircle
 10
99.4720466782848
 20
24.32128126408302
 40
1
100
AcDbArc
 50
0
 51
90
  0
ARC
  5
22B
100
AcDbEntity
  8
case-and-holes
  6
ByLayer
 62
  256
370
   -1
100
AcDbCircle
 10
101.4720466782848
 20
21.56018126408303
 40
1
100
AcDbArc
 50
180
 51
270
  0
ARC
  5
22C
100
AcDbEntity
  8
case-and-holes
  6
ByLayer
 62
  256
370
   -1
100
AcDbCircle
 10
138.1230466782847
 20
21.56018126408303
 40
1
100
AcDbArc
 50
270
 51
0
  0
ARC
  5
22D
100
AcDbEntity
  8
case-and-holes
  6
ByLayer
 62
  256
370
   -1
100
AcDbCircle
 10
138.1230466782847
 20
94.70958126408303
 40
1
100
AcDbArc
 50
0
 51
90
  0
ARC
  5
22E
100
AcDbEntity
  8
case-and-holes
  6
ByLayer
 62
  256
370
   -1
100
AcDbCircle
 10
15.09366837643099
 20
5.262903726267186
 40
1
100
AcDbArc
 50
131.3463772297218
 51
170.0221558824599
  0
LWPOLYLINE
  5
22F
100
AcDbEntity
  8
pro-micro
  6
ByLayer
 62
  256
370
   -1
100
AcDbPolyline
 90
    4
 70
    1
 43
0
 10
2.672883582086547
 20
42.86853579999953
 10
23.17288358208655
 20
42.86853579999953
 10
23.17288358208655
 20
96.86853579999953
 10
2.672883582086547
 20
96.86853579999953
  0
LWPOLYLINE
  5
230
100
AcDbEntity
  8
pro-micro
  6
ByLayer
 62
  256
370
   -1
100
AcDbPolyline
 90
    4
 70
    1
 43
0
 10
5.422883582086547
 20
44.86853579999953
 10
20.42288358208655
 20
44.86853579999953
 10
20.42288358208655
 20
61.36853579999953
 10
5.422883582086547
 20
61.36853579999953
  0
CIRCLE
  5
231
100
AcDbEntity
  8
case-and-holes
  6
ByLayer
 62
  256
370
   -1
100
AcDbCircle
 10
5.422883582086547
 20
44.86853579999953
 40
1
  0
CIRCLE
  5
232
100
AcDbEntity
  8
case-and-holes
  6
ByLayer
 62
  256
370
   -1
100
AcDbCircle
 10
20.42288358208655
 20
61.36853579999953
 40
1
  0
CIRCLE
  5
233
100
AcDbEntity
  8
case-and-holes
  6
ByLayer
 62
  256
370
   -1
100
AcDbCircle
 10
20.42288358208655
 20
44.86853579999953
 40
1
  0
CIRCLE
  5
234
100
AcDbEntity
  8
case-and-holes
  6
ByLayer
 62
  256
370
   -1
100
AcDbCircle
 10
5.422883582086547
 20
61.36853579999953
 40
1
  0
CIRCLE
  5
235
100
AcDbEntity
  8
case-and-holes
  6
ByLayer
 62
  256
370
   -1
100
AcDbCircle
 10
26.49684424986249
 20
99.68472958079336
 40
1
  0
CIRCLE
  5
236
100
AcDbEntity
  8
case-and-holes
  6
ByLayer
 62
  256
370
   -1
100
AcDbCircle
 10
5.422883582086547
 20
78.55819948297238
 40
1
  0
CIRCLE
  5
237
100
AcDbEntity
  8
case-and-holes
  6
ByLayer
 62
  256
370
   -1
100
AcDbCircle
 10
20.42288358208655
 20
95.05819948297238
 40
1
  0
CIRCLE
  5
238
100
AcDbEntity
  8
case-and-holes
  6
ByLayer
 62
  256
370
   -1
100
AcDbCircle
 10
20.42288358208655
 20
78.55819948297238
 40
1
  0
CIRCLE
  5
239
100
AcDbEntity
  8
case-and-holes
  6
ByLayer
 62
  256
370
   -1
100
AcDbCircle
 10
5.422883582086547
 20
95.05819948297238
 40
1
  0
CIRCLE
  5
23A
100
AcDbEntity
  8
case-and-holes
  6
ByLayer
 62
  256
370
   -1
100
AcDbCircle
 10
12.92288358208655
 20
57.36853579999953
 40
1
  0
CIRCLE
  5
23B
100
AcDbEntity
  8
case-and-holes
  6
ByLayer
 62
  256
370
   -1
100
AcDbCircle
 10
4.870427676383006
 20
98.71016871554458
 40
1.3
  0
CIRCLE
  5
23C
100
AcDbEntity
  8
case-and-holes
  6
ByLayer
 62
  256
370
   -1
100
AcDbCircle
 10
21.370427676383
 20
98.71016871554458
 40
1.3
  0
LWPOLYLINE
  5
23D
100
AcDbEntity
  8
pro-micro
  6
ByLayer
 62
  256
370
   -1
100
AcDbPolyline
 90
    4
 70
    1
 43
0
 10
5.422883582086547
 20
78.55819948297238
 10
20.42288358208655
 20
78.55819948297238
 10
20.42288358208655
 20
95.05819948297238
 10
5.422883582086547
 20
95.05819948297238
  0
CIRCLE
  5
23E
100
AcDbEntity
  8
case-and-holes
  6
ByLayer
 62
  256
370
   -1
100
AcDbCircle
 10
12.92288358208655
 20
82.55819948297238
 40
1
  0
LINE
  5
23F
100
AcDbEntity
  8
0
  6
ByLayer
 62
    0
370
   -1
100
AcDbLine
 10
65.17304667828478
 20
43.70328126408303
 11
65.17304667828478
 21
42.70278126408303
  0
LINE
  5
240
100
AcDbEntity
  8
0
  6
ByLayer
 62
    0
370
   -1
100
AcDbLine
 10
65.17304667828478
 20
42.70278126408303
 11
64.37204667828473
 21
42.70278126408303
  0
LINE
  5
241
100
AcDbEntity
  8
0
  6
ByLayer
 62
    0
370
   -1
100
AcDbLine
 10
64.37204667828473
 20
42.70278126408303
 11
64.37204667828473
 21
39.60358126408303
  0
LINE
  5
242
100
AcDbEntity
  8
0
  6
ByLayer
 62
    0
370
   -1
100
AcDbLine
 10
64.37204667828473
 20
39.60358126408303
 11
65.17304667828478
 21
39.60358126408303
  0
LINE
  5
243
100
AcDbEntity
  8
0
  6
ByLayer
 62
    0
370
   -1
100
AcDbLine
 10
65.17304667828478
 20
39.60358126408303
 11
65.17304667828478
 21
33.80358126408303
  0
LINE
  5
244
100
AcDbEntity
  8
0
  6
ByLayer
 62
    0
370
   -1
100
AcDbLine
 10
65.17304667828478
 20
33.80358126408303
 11
64.37204667828473
 21
33.80358126408303
  0
LINE
  5
245
100
AcDbEntity
  8
0
  6
ByLayer
 62
    0
370
   -1
100
AcDbLine
 10
64.37204667828473
 20
33.80358126408303
 11
64.37204667828473
 21
30.70298126408303
  0
LINE
  5
246
100
AcDbEntity
  8
0
  6
ByLayer
 62
    0
370
   -1
100
AcDbLine
 10
64.37204667828473
 20
30.70298126408303
 11
65.17304667828478
 21
30.70298126408303
  0
LINE
  5
247
100
AcDbEntity
  8
0
  6
ByLayer
 62
    0
370
   -1
100
AcDbLine
 10
65.17304667828478
 20
30.70298126408303
 11
65.17304667828478
 21
29.70248126408303
  0
LINE
  5
248
100
AcDbEntity
  8
0
  6
ByLayer
 62
    0
370
   -1
100
AcDbLine
 10
65.17304667828478
 20
29.70248126408303
 11
79.17304667828478
 21
29.70248126408303
  0
LINE
  5
249
100
AcDbEntity
  8
0
  6
ByLayer
 62
    0
370
   -1
100
AcDbLine
 10
79.17304667828478
 20
29.70248126408303
 11
79.17304667828478
 21
30.70298126408303
  0
LINE
  5
24A
100
AcDbEntity
  8
0
  6
ByLayer
 62
    0
370
   -1
100
AcDbLine
 10
79.17304667828478
 20
30.70298126408303
 11
79.97304667828479
 21
30.70298126408303
  0
LINE
  5
24B
100
AcDbEntity
  8
0
  6
ByLayer
 62
    0
370
   -1
100
AcDbLine
 10
79.97304667828479
 20
30.70298126408303
 11
79.97304667828479
 21
33.80358126408303
  0
LINE
  5
24C
100
AcDbEntity
  8
0
  6
ByLayer
 62
    0
370
   -1
100
AcDbLine
 10
79.97304667828479
 20
33.80358126408303
 11
79.17304667828478
 21
33.80358126408303
  0
LINE
  5
24D
100
AcDbEntity
  8
0
  6
ByLayer
 62
    0
370
   -1
100
AcDbLine
 10
79.17304667828478
 20
33.80358126408303
 11
79.17304667828478
 21
39.60358126408303
  0
LINE
  5
24E
100
AcDbEntity
  8
0
  6
ByLayer
 62
    0
370
   -1
100
AcDbLine
 10
79.17304667828478
 20
39.60358126408303
 11
79.97304667828479
 21
39.60358126408303
  0
LINE
  5
24F
100
AcDbEntity
  8
0
  6
ByLayer
 62
    0
370
   -1
100
AcDbLine
 10
79.97304667828479
 20
39.60358126408303
 11
79.97304667828479
 21
42.70278126408303
  0
LINE
  5
250
100
AcDbEntity
  8
0
  6
ByLayer
 62
    0
370
   -1
100
AcDbLine
 10
79.97304667828479
 20
42.70278126408303
 11
79.17304667828478
 21
42.70278126408303
  0
LINE
  5
251
100
AcDbEntity
  8
0
  6
ByLayer
 62
    0
370
   -1
100
AcDbLine
 10
79.17304667828478
 20
42.70278126408303
 11
79.17304667828478
 21
43.70328126408303
  0
LINE
  5
252
100
AcDbEntity
  8
0
  6
ByLayer
 62
    0
370
   -1
100
AcDbLine
 10
79.17304667828478
 20
43.70328126408303
 11
65.17304667828478
 21
43.70328126408303
  0
LINE
  5
253
100
AcDbEntity
  8
case-and-holes
  6
ByLayer
 62
  256
370
   -1
100
AcDbLine
 10
126.9823302359863
 20
102.853381264083
 11
43.32204667828478
 21
102.853381264083
  0
ARC
  5
254
100
AcDbEntity
  8
case-and-holes
  6
ByLayer
 62
  256
370
   -1
100
AcDbCircle
 10
126.9823302359863
 20
101.853381264083
 40
1
100
AcDbArc
 50
0
 51
90
  0
LINE
  5
255
100
AcDbEntity
  8
case-and-holes
  6
ByLayer
 62
  256
370
   -1
100
AcDbLine
 10
127.9823302359863
 20
96.70958126408303
 11
127.9823302359863
 21
101.853381264083
  0
LINE
  5
256
100
AcDbEntity
  8
case-and-holes
  6
ByLayer
 62
  256
370
   -1
100
AcDbLine
 10
138.1230466782847
 20
95.70958126408303
 11
128.9823302359863
 21
95.70958126408303
  0
ARC
  5
257
100
AcDbEntity
  8
case-and-holes
  6
ByLayer
 62
  256
370
   -1
100
AcDbCircle
 10
128.9823302359863
 20
96.70958126408303
 40
1
100
AcDbArc
 50
180
 51
270
  0
CIRCLE
  5
258
100
AcDbEntity
  8
0
  6
ByLayer
 62
  256
370
   -1
100
AcDbCircle
 10
115.5404661826742
 20
98.87196868367124
 40
1.5
  0
CIRCLE
  5
259
100
AcDbEntity
  8
0
  6
ByLayer
 62
  256
370
   -1
100
AcDbCircle
 10
121.6250468817681
 20
98.87196868367124
 40
1.5
  0
CIRCLE
  5
25A
100
AcDbEntity
  8
0
  6
ByLayer
 62
  256
370
   -1
100
AcDbCircle
 10
109.6314635917431
 20
98.87196868367126
 40
1.5
  0
CIRCLE
  5
25B
100
AcDbEntity
  8
case-and-holes
  6
ByLayer
 62
  256
370
   -1
100
AcDbCircle
 10
5.016392843420569
 20
39.51701911993536
 40
1
  0
LINE
  5
25C
100
AcDbEntity
  8
case-and-holes
  6
ByLayer
 62
  256
370
   -1
100
AcDbLine
 10
-3.038149737704049
 20
21.05367002366377
 11
2.637358329947312
 21
41.77434015343415
  0
ARC
  5
25D
100
AcDbEntity
  8
case-and-holes
  6
ByLayer
 62
  256
370
   -1
100
AcDbCircle
 10
1.672883582086542
 20
42.03851521043026
 40
1
100
AcDbArc
 50
344.6820596790394
 51
0
  0
LINE
  5
25E
100
AcDbEntity
  8
case-and-holes
  6
ByLayer
 62
  256
370
   -1
100
AcDbLine
 10
3.626478643404021
 20
101.0093242803348
 11
43.32204667828478
 21
102.853381264083
  0
LINE
  5
25F
100
AcDbEntity
  8
case-and-holes
  6
ByLayer
 62
  256
370
   -1
100
AcDbLine
 10
2.672883582086541
 20
42.03851521043026
 11
2.672883582086548
 21
100.0104015697781
  0
ARC
  5
260
100
AcDbEntity
  8
case-and-holes
  6
ByLayer
 62
  256
370
   -1
100
AcDbCircle
 10
3.672883582086548
 20
100.0104015697781
 40
1
100
AcDbArc
 50
92.65976231497304
 51
180
  0
LINE
  5
261
100
AcDbEntity
  8
0
  6
ByLayer
 62
    0
370
   -1
100
AcDbLine
 10
-1.190420536935003
 20
15.40949344369499
 11
-1.978420536935014
 21
15.54869344369499
  0
LINE
  5
262
100
AcDbEntity
  8
0
  6
ByLayer
 62
    0
370
   -1
100
AcDbLine
 10
-1.978420536935014
 20
15.54869344369499
 11
-2.517420536935001
 21
12.49489344369499
  0
LINE
  5
263
100
AcDbEntity
  8
0
  6
ByLayer
 62
    0
370
   -1
100
AcDbLine
 10
-2.517420536935001
 20
12.49489344369499
 11
-1.729420536935018
 21
12.35569344369499
  0
LINE
  5
264
100
AcDbEntity
  8
0
  6
ByLayer
 62
    0
370
   -1
100
AcDbLine
 10
-1.729420536935018
 20
12.35569344369499
 11
-2.736420536935023
 21
6.643773443694986
  0
LINE
  5
265
100
AcDbEntity
  8
0
  6
ByLayer
 62
    0
370
   -1
100
AcDbLine
 10
-2.736420536935023
 20
6.643773443694986
 11
-3.524420536935006
 21
6.782943443694986
  0
LINE
  5
266
100
AcDbEntity
  8
0
  6
ByLayer
 62
    0
370
   -1
100
AcDbLine
 10
-3.524420536935006
 20
6.782943443694986
 11
-4.061420536935012
 21
3.730603443694989
  0
LINE
  5
267
100
AcDbEntity
  8
0
  6
ByLayer
 62
    0
370
   -1
100
AcDbLine
 10
-4.061420536935012
 20
3.730603443694989
 11
-3.275420536935011
 21
3.591433443694989
  0
LINE
  5
268
100
AcDbEntity
  8
0
  6
ByLayer
 62
    0
370
   -1
100
AcDbLine
 10
-3.275420536935011
 20
3.591433443694989
 11
-3.448420536935012
 21
2.606123443694987
  0
LINE
  5
269
100
AcDbEntity
  8
0
  6
ByLayer
 62
    0
370
   -1
100
AcDbLine
 10
-3.448420536935012
 20
2.606123443694987
 11
10.33857946306499
 21
0.175263443694988
  0
LINE
  5
26A
100
AcDbEntity
  8
0
  6
ByLayer
 62
    0
370
   -1
100
AcDbLine
 10
10.33857946306499
 20
0.175263443694988
 11
10.51157946306499
 21
1.160543443694984
  0
LINE
  5
26B
100
AcDbEntity
  8
0
  6
ByLayer
 62
    0
370
   -1
100
AcDbLine
 10
10.51157946306499
 20
1.160543443694984
 11
11.30057946306498
 21
1.021373443694984
  0
LINE
  5
26C
100
AcDbEntity
  8
0
  6
ByLayer
 62
    0
370
   -1
100
AcDbLine
 10
11.30057946306498
 20
1.021373443694984
 11
11.83757946306499
 21
4.073753443694987
  0
LINE
  5
26D
100
AcDbEntity
  8
0
  6
ByLayer
 62
    0
370
   -1
100
AcDbLine
 10
11.83757946306499
 20
4.073753443694987
 11
11.05057946306498
 21
4.212923443694987
  0
LINE
  5
26E
100
AcDbEntity
  8
0
  6
ByLayer
 62
    0
370
   -1
100
AcDbLine
 10
11.05057946306498
 20
4.212923443694987
 11
12.05857946306499
 21
9.924893443694989
  0
LINE
  5
26F
100
AcDbEntity
  8
0
  6
ByLayer
 62
    0
370
   -1
100
AcDbLine
 10
12.05857946306499
 20
9.924893443694989
 11
12.84457946306499
 21
9.787093443694989
  0
LINE
  5
270
100
AcDbEntity
  8
0
  6
ByLayer
 62
    0
370
   -1
100
AcDbLine
 10
12.84457946306499
 20
9.787093443694989
 11
13.38357946306498
 21
12.83939344369499
  0
LINE
  5
271
100
AcDbEntity
  8
0
  6
ByLayer
 62
    0
370
   -1
100
AcDbLine
 10
13.38357946306498
 20
12.83939344369499
 11
12.595579463065
 21
12.97859344369499
  0
LINE
  5
272
100
AcDbEntity
  8
0
  6
ByLayer
 62
    0
370
   -1
100
AcDbLine
 10
12.595579463065
 20
12.97859344369499
 11
12.77057946306498
 21
13.96389344369499
  0
LINE
  5
273
100
AcDbEntity
  8
0
  6
ByLayer
 62
    0
370
   -1
100
AcDbLine
 10
12.77057946306498
 20
13.96389344369499
 11
-1.018420536935006
 21
16.39479344369499
  0
LINE
  5
274
100
AcDbEntity
  8
0
  6
ByLayer
 62
    0
370
   -1
100
AcDbLine
 10
-1.018420536935006
 20
16.39479344369499
 11
-1.190420536935003
 21
15.40949344369499
  0
LINE
  5
275
100
AcDbEntity
  8
0
  6
ByLayer
 62
    0
370
   -1
100
AcDbLine
 10
6.805605305331111
 20
33.34354148081604
 11
6.016605305331131
 21
33.48294148081604
  0
LINE
  5
276
100
AcDbEntity
  8
0
  6
ByLayer
 62
    0
370
   -1
100
AcDbLine
 10
6.016605305331131
 20
33.48294148081604
 11
5.479605305331122
 21
30.42924148081603
  0
LINE
  5
277
100
AcDbEntity
  8
0
  6
ByLayer
 62
    0
370
   -1
100
AcDbLine
 10
5.479605305331122
 20
30.42924148081603
 11
6.267605305331132
 21
30.29134148081604
  0
LINE
  5
278
100
AcDbEntity
  8
0
  6
ByLayer
 62
    0
370
   -1
100
AcDbLine
 10
6.267605305331132
 20
30.29134148081604
 11
5.26060530533112
 21
24.57794148081603
  0
LINE
  5
279
100
AcDbEntity
  8
0
  6
ByLayer
 62
    0
370
   -1
100
AcDbLine
 10
5.26060530533112
 20
24.57794148081603
 11
4.472605305331109
 21
24.71714148081604
  0
LINE
  5
27A
100
AcDbEntity
  8
0
  6
ByLayer
 62
    0
370
   -1
100
AcDbLine
 10
4.472605305331109
 20
24.71714148081604
 11
3.934605305331131
 21
21.66474148081605
  0
LINE
  5
27B
100
AcDbEntity
  8
0
  6
ByLayer
 62
    0
370
   -1
100
AcDbLine
 10
3.934605305331131
 20
21.66474148081605
 11
4.721605305331112
 21
21.52564148081602
  0
LINE
  5
27C
100
AcDbEntity
  8
0
  6
ByLayer
 62
    0
370
   -1
100
AcDbLine
 10
4.721605305331112
 20
21.52564148081602
 11
4.54860530533111
 21
20.54034148081604
  0
LINE
  5
27D
100
AcDbEntity
  8
0
  6
ByLayer
 62
    0
370
   -1
100
AcDbLine
 10
4.54860530533111
 20
20.54034148081604
 11
18.33560530533111
 21
18.10944148081604
  0
LINE
  5
27E
100
AcDbEntity
  8
0
  6
ByLayer
 62
    0
370
   -1
100
AcDbLine
 10
18.33560530533111
 20
18.10944148081604
 11
18.50860530533112
 21
19.09474148081603
  0
LINE
  5
27F
100
AcDbEntity
  8
0
  6
ByLayer
 62
    0
370
   -1
100
AcDbLine
 10
18.50860530533112
 20
19.09474148081603
 11
19.29760530533113
 21
18.95554148081604
  0
LINE
  5
280
100
AcDbEntity
  8
0
  6
ByLayer
 62
    0
370
   -1
100
AcDbLine
 10
19.29760530533113
 20
18.95554148081604
 11
19.8346053053311
 21
22.00924148081603
  0
LINE
  5
281
100
AcDbEntity
  8
0
  6
ByLayer
 62
    0
370
   -1
100
AcDbLine
 10
19.8346053053311
 20
22.00924148081603
 11
19.04760530533113
 21
22.14714148081603
  0
LINE
  5
282
100
AcDbEntity
  8
0
  6
ByLayer
 62
    0
370
   -1
100
AcDbLine
 10
19.04760530533113
 20
22.14714148081603
 11
20.05360530533113
 21
27.85904148081604
  0
LINE
  5
283
100
AcDbEntity
  8
0
  6
ByLayer
 62
    0
370
   -1
100
AcDbLine
 10
20.05360530533113
 20
27.85904148081604
 11
20.84260530533111
 21
27.72124148081604
  0
LINE
  5
284
100
AcDbEntity
  8
0
  6
ByLayer
 62
    0
370
   -1
100
AcDbLine
 10
20.84260530533111
 20
27.72124148081604
 11
21.38060530533112
 21
30.77354148081604
  0
LINE
  5
285
100
AcDbEntity
  8
0
  6
ByLayer
 62
    0
370
   -1
100
AcDbLine
 10
21.38060530533112
 20
30.77354148081604
 11
20.59360530533112
 21
30.91294148081604
  0
LINE
  5
286
100
AcDbEntity
  8
0
  6
ByLayer
 62
    0
370
   -1
100
AcDbLine
 10
20.59360530533112
 20
30.91294148081604
 11
20.76660530533113
 21
31.89684148081604
  0
LINE
  5
287
100
AcDbEntity
  8
0
  6
ByLayer
 62
    0
370
   -1
100
AcDbLine
 10
20.76660530533113
 20
31.89684148081604
 11
6.979605305331122
 21
34.32744148081604
  0
LINE
  5
288
100
AcDbEntity
  8
0
  6
ByLayer
 62
    0
370
   -1
100
AcDbLine
 10
6.979605305331122
 20
34.32744148081604
 11
6.805605305331111
 21
33.34354148081604
  0
CIRCLE
  5
289
100
AcDbEntity
  8
case-and-holes
  6
ByLayer
 62
  256
370
   -1
100
AcDbCircle
 10
17.6220267232494
 20
14.22859590154259
 40
1
  0
LINE
  5
28A
100
AcDbEntity
  8
case-and-holes
  6
ByLayer
 62
  256
370
   -1
100
AcDbLine
 10
14.10879354849865
 20
5.436171072600103
 11
12.92446498235221
 21
-1.295711290033108
  0
ARC
  5
28B
100
AcDbEntity
  8
case-and-holes
  6
ByLayer
 62
  256
370
   -1
100
AcDbCircle
 10
11.93959015441988
 20
-1.122443943700191
 40
1
100
AcDbArc
 50
260.0006452112433
 51
350.0221558824599
  0
LINE
  5
28C
100
AcDbEntity
  8
case-and-holes
  6
ByLayer
 62
  256
370
   -1
100
AcDbLine
 10
-5.57092320454506
 20
0.9495040945200932
 11
11.76595306674371
 21
-2.107253652112602
  0
LINE
  5
28D
100
AcDbEntity
  8
case-and-holes
  6
ByLayer
 62
  256
370
   -1
100
AcDbLine
 10
-3.038149737704049
 20
21.05367002366377
 11
-6.38206448099656
 21
2.108128570849463
  0
ARC
  5
28E
100
AcDbEntity
  8
case-and-holes
  6
ByLayer
 62
  256
370
   -1
100
AcDbCircle
 10
-5.397286116868887
 20
1.934313802932504
 40
1
100
AcDbArc
 50
169.9903076914192
 51
260.000645211243
  0
ENDSEC
  0
SECTION
  2
OBJECTS
  0
DICTIONARY
  5
C
330
0
100
AcDbDictionary
281
    1
  3
ACAD_GROUP
350
D
  0
DICTIONARY
  5
D
330
C
100
AcDbDictionary
281
    1
  0
ENDSEC
  0
EOF
