  0
SECTION
  2
HEADER
  9
$ACADVER
  1
AC1009
  9
$EXTMIN
 10
0.0
 20
0.0
 30
0.0
  9
$EXTMAX
 10
1000.0
 20
1000.0
 30
0.0
  9
$FILLMODE
 70
 0
  9
$SPLFRAME
 70
 1
  0
ENDSEC
  0
SECTION
  2
TABLES
  0
TABLE
  2
LAYER
 70
1
  0
LAYER
  2
0
 70
     0
 62
     7
  6
CONTINUOUS
  0
ENDTAB
  0
ENDSEC
  0
SECTION
  2
ENTITIES
  0
LINE
  8
0
 62
     0
 10
0.0937066
 20
174.376
 30
0.0
 11
158.021
 21
174.376
 31
0.0
  0
LINE
  8
0
 62
     0
 10
158.021
 20
174.376
 30
0.0
 11
158.021
 21
0.0978408
 31
0.0
  0
LINE
  8
0
 62
     0
 10
158.021
 20
0.0978408
 30
0.0
 11
0.0937066
 21
0.0978408
 31
0.0
  0
LINE
  8
0
 62
     0
 10
0.0937066
 20
0.0978408
 30
0.0
 11
0.0937066
 21
174.376
 31
0.0
  0
LINE
  8
0
 62
     0
 10
31.0982
 20
16.7142
 30
0.0
 11
34.7211
 21
3.19154
 31
0.0
  0
LINE
  8
0
 62
     0
 10
34.7211
 20
3.19154
 30
0.0
 11
48.2438
 21
6.81577
 31
0.0
  0
LINE
  8
0
 62
     0
 10
48.2438
 20
6.81577
 30
0.0
 11
44.6207
 21
20.3385
 31
0.0
  0
LINE
  8
0
 62
     0
 10
44.6207
 20
20.3385
 30
0.0
 11
31.0982
 21
16.7142
 31
0.0
  0
LINE
  8
0
 62
     0
 10
125.921
 20
13.079
 30
0.0
 11
138.045
 21
6.07991
 31
0.0
  0
LINE
  8
0
 62
     0
 10
138.045
 20
6.07991
 30
0.0
 11
145.045
 21
18.2039
 31
0.0
  0
LINE
  8
0
 62
     0
 10
145.045
 20
18.2039
 30
0.0
 11
132.921
 21
25.2029
 31
0.0
  0
LINE
  8
0
 62
     0
 10
132.921
 20
25.2029
 30
0.0
 11
125.921
 21
13.079
 31
0.0
  0
LINE
  8
0
 62
     0
 10
109.423
 20
22.604
 30
0.0
 11
121.547
 21
15.6049
 31
0.0
  0
LINE
  8
0
 62
     0
 10
121.547
 20
15.6049
 30
0.0
 11
128.546
 21
27.7289
 31
0.0
  0
LINE
  8
0
 62
     0
 10
128.546
 20
27.7289
 30
0.0
 11
116.422
 21
34.7279
 31
0.0
  0
LINE
  8
0
 62
     0
 10
116.422
 20
34.7279
 30
0.0
 11
109.423
 21
22.604
 31
0.0
  0
LINE
  8
0
 62
     0
 10
47.0337
 20
30.846
 30
0.0
 11
50.6568
 21
17.322
 31
0.0
  0
LINE
  8
0
 62
     0
 10
50.6568
 20
17.322
 30
0.0
 11
64.1794
 21
20.9448
 31
0.0
  0
LINE
  8
0
 62
     0
 10
64.1794
 20
20.9448
 30
0.0
 11
60.555
 21
34.4675
 31
0.0
  0
LINE
  8
0
 62
     0
 10
60.555
 20
34.4675
 30
0.0
 11
47.0337
 21
30.846
 31
0.0
  0
LINE
  8
0
 62
     0
 10
21.5663
 20
33.8832
 30
0.0
 11
25.1906
 21
20.3605
 31
0.0
  0
LINE
  8
0
 62
     0
 10
25.1906
 20
20.3605
 30
0.0
 11
38.7131
 21
23.9834
 31
0.0
  0
LINE
  8
0
 62
     0
 10
38.7131
 20
23.9834
 30
0.0
 11
35.0904
 21
37.5059
 31
0.0
  0
LINE
  8
0
 62
     0
 10
35.0904
 20
37.5059
 30
0.0
 11
21.5663
 21
33.8832
 31
0.0
  0
LINE
  8
0
 62
     0
 10
135.446
 20
29.5768
 30
0.0
 11
147.57
 21
22.575
 31
0.0
  0
LINE
  8
0
 62
     0
 10
147.57
 20
22.575
 30
0.0
 11
154.57
 21
34.7018
 31
0.0
  0
LINE
  8
0
 62
     0
 10
154.57
 20
34.7018
 30
0.0
 11
142.446
 21
41.7022
 31
0.0
  0
LINE
  8
0
 62
     0
 10
142.446
 20
41.7022
 30
0.0
 11
135.446
 21
29.5768
 31
0.0
  0
LINE
  8
0
 62
     0
 10
118.948
 20
39.1019
 30
0.0
 11
131.072
 21
32.1
 31
0.0
  0
LINE
  8
0
 62
     0
 10
131.072
 20
32.1
 30
0.0
 11
138.071
 21
44.2267
 31
0.0
  0
LINE
  8
0
 62
     0
 10
138.071
 20
44.2267
 30
0.0
 11
125.947
 21
51.2272
 31
0.0
  0
LINE
  8
0
 62
     0
 10
125.947
 20
51.2272
 30
0.0
 11
118.948
 21
39.1019
 31
0.0
  0
LINE
  8
0
 62
     0
 10
37.5035
 20
48.0148
 30
0.0
 11
41.1261
 21
34.4909
 31
0.0
  0
LINE
  8
0
 62
     0
 10
41.1261
 20
34.4909
 30
0.0
 11
54.6488
 21
38.1152
 31
0.0
  0
LINE
  8
0
 62
     0
 10
54.6488
 20
38.1152
 30
0.0
 11
51.0261
 21
51.6364
 31
0.0
  0
LINE
  8
0
 62
     0
 10
51.0261
 20
51.6364
 30
0.0
 11
37.5035
 21
48.0148
 31
0.0
  0
LINE
  8
0
 62
     0
 10
97.8683
 20
52.7886
 30
0.0
 11
111.869
 21
52.7886
 31
0.0
  0
LINE
  8
0
 62
     0
 10
111.869
 20
52.7886
 30
0.0
 11
111.869
 21
38.7876
 31
0.0
  0
LINE
  8
0
 62
     0
 10
111.869
 20
38.7876
 30
0.0
 11
97.8683
 21
38.7876
 31
0.0
  0
LINE
  8
0
 62
     0
 10
97.8683
 20
38.7876
 30
0.0
 11
97.8683
 21
52.7886
 31
0.0
  0
LINE
  8
0
 62
     0
 10
40.7183
 20
71.8386
 30
0.0
 11
54.719
 21
71.8386
 31
0.0
  0
LINE
  8
0
 62
     0
 10
54.719
 20
71.8386
 30
0.0
 11
54.719
 21
57.8376
 31
0.0
  0
LINE
  8
0
 62
     0
 10
54.719
 20
57.8376
 30
0.0
 11
40.7183
 21
57.8376
 31
0.0
  0
LINE
  8
0
 62
     0
 10
40.7183
 20
57.8376
 30
0.0
 11
40.7183
 21
71.8386
 31
0.0
  0
LINE
  8
0
 62
     0
 10
59.7683
 20
71.8386
 30
0.0
 11
73.769
 21
71.8386
 31
0.0
  0
LINE
  8
0
 62
     0
 10
73.769
 20
71.8386
 30
0.0
 11
73.769
 21
57.8376
 31
0.0
  0
LINE
  8
0
 62
     0
 10
73.769
 20
57.8376
 30
0.0
 11
59.7683
 21
57.8376
 31
0.0
  0
LINE
  8
0
 62
     0
 10
59.7683
 20
57.8376
 30
0.0
 11
59.7683
 21
71.8386
 31
0.0
  0
LINE
  8
0
 62
     0
 10
78.8183
 20
71.8386
 30
0.0
 11
92.819
 21
71.8386
 31
0.0
  0
LINE
  8
0
 62
     0
 10
92.819
 20
71.8386
 30
0.0
 11
92.819
 21
57.8376
 31
0.0
  0
LINE
  8
0
 62
     0
 10
92.819
 20
57.8376
 30
0.0
 11
78.8183
 21
57.8376
 31
0.0
  0
LINE
  8
0
 62
     0
 10
78.8183
 20
57.8376
 30
0.0
 11
78.8183
 21
71.8386
 31
0.0
  0
LINE
  8
0
 62
     0
 10
97.8683
 20
71.8386
 30
0.0
 11
111.868
 21
71.8386
 31
0.0
  0
LINE
  8
0
 62
     0
 10
111.868
 20
71.8386
 30
0.0
 11
111.868
 21
57.8376
 31
0.0
  0
LINE
  8
0
 62
     0
 10
111.868
 20
57.8376
 30
0.0
 11
97.8683
 21
57.8376
 31
0.0
  0
LINE
  8
0
 62
     0
 10
97.8683
 20
57.8376
 30
0.0
 11
97.8683
 21
71.8386
 31
0.0
  0
LINE
  8
0
 62
     0
 10
59.7683
 20
90.8886
 30
0.0
 11
73.769
 21
90.8886
 31
0.0
  0
LINE
  8
0
 62
     0
 10
73.769
 20
90.8886
 30
0.0
 11
73.769
 21
76.8876
 31
0.0
  0
LINE
  8
0
 62
     0
 10
73.769
 20
76.8876
 30
0.0
 11
59.7683
 21
76.8876
 31
0.0
  0
LINE
  8
0
 62
     0
 10
59.7683
 20
76.8876
 30
0.0
 11
59.7683
 21
90.8886
 31
0.0
  0
LINE
  8
0
 62
     0
 10
78.8183
 20
90.8886
 30
0.0
 11
92.819
 21
90.8886
 31
0.0
  0
LINE
  8
0
 62
     0
 10
92.819
 20
90.8886
 30
0.0
 11
92.819
 21
76.8876
 31
0.0
  0
LINE
  8
0
 62
     0
 10
92.819
 20
76.8876
 30
0.0
 11
78.8183
 21
76.8876
 31
0.0
  0
LINE
  8
0
 62
     0
 10
78.8183
 20
76.8876
 30
0.0
 11
78.8183
 21
90.8886
 31
0.0
  0
LINE
  8
0
 62
     0
 10
97.8683
 20
90.8886
 30
0.0
 11
111.869
 21
90.8886
 31
0.0
  0
LINE
  8
0
 62
     0
 10
111.869
 20
90.8886
 30
0.0
 11
111.869
 21
76.8876
 31
0.0
  0
LINE
  8
0
 62
     0
 10
111.869
 20
76.8876
 30
0.0
 11
97.8683
 21
76.8876
 31
0.0
  0
LINE
  8
0
 62
     0
 10
97.8683
 20
76.8876
 30
0.0
 11
97.8683
 21
90.8886
 31
0.0
  0
LINE
  8
0
 62
     0
 10
59.7683
 20
109.939
 30
0.0
 11
73.769
 21
109.939
 31
0.0
  0
LINE
  8
0
 62
     0
 10
73.769
 20
109.939
 30
0.0
 11
73.769
 21
95.9376
 31
0.0
  0
LINE
  8
0
 62
     0
 10
73.769
 20
95.9376
 30
0.0
 11
59.7683
 21
95.9376
 31
0.0
  0
LINE
  8
0
 62
     0
 10
59.7683
 20
95.9376
 30
0.0
 11
59.7683
 21
109.939
 31
0.0
  0
LINE
  8
0
 62
     0
 10
78.8183
 20
109.939
 30
0.0
 11
92.819
 21
109.939
 31
0.0
  0
LINE
  8
0
 62
     0
 10
92.819
 20
109.939
 30
0.0
 11
92.819
 21
95.9376
 31
0.0
  0
LINE
  8
0
 62
     0
 10
92.819
 20
95.9376
 30
0.0
 11
78.8183
 21
95.9376
 31
0.0
  0
LINE
  8
0
 62
     0
 10
78.8183
 20
95.9376
 30
0.0
 11
78.8183
 21
109.939
 31
0.0
  0
LINE
  8
0
 62
     0
 10
97.8683
 20
109.939
 30
0.0
 11
111.869
 21
109.939
 31
0.0
  0
LINE
  8
0
 62
     0
 10
111.869
 20
109.939
 30
0.0
 11
111.869
 21
95.9376
 31
0.0
  0
LINE
  8
0
 62
     0
 10
111.869
 20
95.9376
 30
0.0
 11
97.8683
 21
95.9376
 31
0.0
  0
LINE
  8
0
 62
     0
 10
97.8683
 20
95.9376
 30
0.0
 11
97.8683
 21
109.939
 31
0.0
  0
LINE
  8
0
 62
     0
 10
116.918
 20
109.939
 30
0.0
 11
130.919
 21
109.939
 31
0.0
  0
LINE
  8
0
 62
     0
 10
130.919
 20
109.939
 30
0.0
 11
130.919
 21
95.9376
 31
0.0
  0
LINE
  8
0
 62
     0
 10
130.919
 20
95.9376
 30
0.0
 11
116.918
 21
95.9376
 31
0.0
  0
LINE
  8
0
 62
     0
 10
116.918
 20
95.9376
 30
0.0
 11
116.918
 21
109.939
 31
0.0
  0
LINE
  8
0
 62
     0
 10
35.3081
 20
108.796
 30
0.0
 11
47.432
 21
101.797
 31
0.0
  0
LINE
  8
0
 62
     0
 10
47.432
 20
101.797
 30
0.0
 11
54.4311
 21
113.921
 31
0.0
  0
LINE
  8
0
 62
     0
 10
54.4311
 20
113.921
 30
0.0
 11
42.3072
 21
120.92
 31
0.0
  0
LINE
  8
0
 62
     0
 10
42.3072
 20
120.92
 30
0.0
 11
35.3081
 21
108.796
 31
0.0
  0
LINE
  8
0
 62
     0
 10
59.7683
 20
128.989
 30
0.0
 11
73.769
 21
128.989
 31
0.0
  0
LINE
  8
0
 62
     0
 10
73.769
 20
128.989
 30
0.0
 11
73.769
 21
114.988
 31
0.0
  0
LINE
  8
0
 62
     0
 10
73.769
 20
114.988
 30
0.0
 11
59.7683
 21
114.988
 31
0.0
  0
LINE
  8
0
 62
     0
 10
59.7683
 20
114.988
 30
0.0
 11
59.7683
 21
128.989
 31
0.0
  0
LINE
  8
0
 62
     0
 10
121.681
 20
128.989
 30
0.0
 11
135.68
 21
128.989
 31
0.0
  0
LINE
  8
0
 62
     0
 10
135.68
 20
128.989
 30
0.0
 11
135.68
 21
114.988
 31
0.0
  0
LINE
  8
0
 62
     0
 10
135.68
 20
114.988
 30
0.0
 11
121.681
 21
114.988
 31
0.0
  0
LINE
  8
0
 62
     0
 10
121.681
 20
114.988
 30
0.0
 11
121.681
 21
128.989
 31
0.0
  0
LINE
  8
0
 62
     0
 10
36.5841
 20
130.055
 30
0.0
 11
48.708
 21
123.056
 31
0.0
  0
LINE
  8
0
 62
     0
 10
48.708
 20
123.056
 30
0.0
 11
55.7071
 21
135.18
 31
0.0
  0
LINE
  8
0
 62
     0
 10
55.7071
 20
135.18
 30
0.0
 11
43.5832
 21
142.18
 31
0.0
  0
LINE
  8
0
 62
     0
 10
43.5832
 20
142.18
 30
0.0
 11
36.5841
 21
130.055
 31
0.0
  0
LINE
  8
0
 62
     0
 10
15.3238
 20
131.332
 30
0.0
 11
27.4478
 21
124.332
 31
0.0
  0
LINE
  8
0
 62
     0
 10
27.4478
 20
124.332
 30
0.0
 11
34.4482
 21
136.456
 31
0.0
  0
LINE
  8
0
 62
     0
 10
34.4482
 20
136.456
 30
0.0
 11
22.3242
 21
143.456
 31
0.0
  0
LINE
  8
0
 62
     0
 10
22.3242
 20
143.456
 30
0.0
 11
15.3238
 21
131.332
 31
0.0
  0
LINE
  8
0
 62
     0
 10
140.731
 20
138.514
 30
0.0
 11
154.73
 21
138.514
 31
0.0
  0
LINE
  8
0
 62
     0
 10
154.73
 20
138.514
 30
0.0
 11
154.73
 21
124.513
 31
0.0
  0
LINE
  8
0
 62
     0
 10
154.73
 20
124.513
 30
0.0
 11
140.731
 21
124.513
 31
0.0
  0
LINE
  8
0
 62
     0
 10
140.731
 20
124.513
 30
0.0
 11
140.731
 21
138.514
 31
0.0
  0
LINE
  8
0
 62
     0
 10
121.681
 20
148.039
 30
0.0
 11
135.68
 21
148.039
 31
0.0
  0
LINE
  8
0
 62
     0
 10
135.68
 20
148.039
 30
0.0
 11
135.68
 21
134.038
 31
0.0
  0
LINE
  8
0
 62
     0
 10
135.68
 20
134.038
 30
0.0
 11
121.681
 21
134.038
 31
0.0
  0
LINE
  8
0
 62
     0
 10
121.681
 20
134.038
 30
0.0
 11
121.681
 21
148.039
 31
0.0
  0
LINE
  8
0
 62
     0
 10
24.8488
 20
147.83
 30
0.0
 11
36.9729
 21
140.83
 31
0.0
  0
LINE
  8
0
 62
     0
 10
36.9729
 20
140.83
 30
0.0
 11
43.973
 21
152.954
 31
0.0
  0
LINE
  8
0
 62
     0
 10
43.973
 20
152.954
 30
0.0
 11
31.8492
 21
159.953
 31
0.0
  0
LINE
  8
0
 62
     0
 10
31.8492
 20
159.953
 30
0.0
 11
24.8488
 21
147.83
 31
0.0
  0
LINE
  8
0
 62
     0
 10
140.731
 20
157.564
 30
0.0
 11
154.73
 21
157.564
 31
0.0
  0
LINE
  8
0
 62
     0
 10
154.73
 20
157.564
 30
0.0
 11
154.73
 21
143.563
 31
0.0
  0
LINE
  8
0
 62
     0
 10
154.73
 20
143.563
 30
0.0
 11
140.731
 21
143.563
 31
0.0
  0
LINE
  8
0
 62
     0
 10
140.731
 20
143.563
 30
0.0
 11
140.731
 21
157.564
 31
0.0
  0
ENDSEC
  0
EOF
